<svg width="24.000000" height="24.000000" viewBox="0 0 24 24" fill="none" xmlns="http://www.w3.org/2000/svg" xmlns:xlink="http://www.w3.org/1999/xlink">
	<desc>
			Created with Pixso.
	</desc>
	<defs>
		<clipPath id="clip3_1194">
			<rect id="icon / search" width="24.000000" height="24.000000" fill="black" fill-opacity="0"/>
		</clipPath>
	</defs>
	<rect id="icon / search" width="24.000000" height="24.000000" fill="black" fill-opacity="0"/>
	<g clip-path="url(#clip3_1194)">
		<path id="Vector" d="M15.5 14L14.71 14L14.43 13.73C15.63 12.33 16.25 10.42 15.91 8.39C15.44 5.6 13.12 3.39 10.32 3.05C6.09 2.53 2.53 6.08 3.05 10.32C3.39 13.12 5.61 15.44 8.39 15.91C10.42 16.25 12.33 15.63 13.73 14.43L14 14.71L14 15.5L18.25 19.75C18.66 20.16 19.33 20.16 19.74 19.75C20.15 19.34 20.15 18.67 19.74 18.26L15.5 14ZM9.5 14C7 14 5 11.99 5 9.5C5 7.01 7 5 9.5 5C11.99 5 14 7.01 14 9.5C14 11.99 11.99 14 9.5 14Z" fill="#3A3A3A" fill-opacity="1.000000" fill-rule="nonzero"/>
	</g>
</svg>
