<svg width="23.000000" height="23.000000" viewBox="0 0 26 22" fill="none" xmlns="http://www.w3.org/2000/svg" xmlns:xlink="http://www.w3.org/1999/xlink">
	<desc>
			Created with Pixso.
	</desc>
	<defs>
		<clipPath id="clip238_8805">
			<rect id="list / avatar" rx="0.000000" width="24.000000" height="24.000000" transform="translate(0.500000 0.500000)" fill="white" fill-opacity="0"/>
		</clipPath>
	</defs>
	<rect id="icon / avatar" rx="0.000000" width="22.000000" height="22.000000" transform="translate(0.500000 0.500000)" fill="#FFFFFF" fill-opacity="0"/>
	<rect id="list / avatar" rx="0.000000" width="22.000000" height="22.000000" transform="translate(0.500000 0.500000)" fill="#FFFFFF" fill-opacity="0"/>
	<g clip-path="url(#clip238_8805)">
		<path id="Ellipse 5" d="M12 24C16.5 24 20.75 21.25 20.5 19.25C20.5 16.9 16.69 15 12 15C7.3 15 3.5 16.9 3.5 19.25C2.75 21.25 8.25 24.25 12 24ZM11.96 23L11.93 23Q10.74 23.08 9.24 22.67Q7.85 22.3 6.62 21.63Q6.58 21.61 6.54 21.59Q5.94 21.26 5.47 20.9Q5.02 20.55 4.75 20.22Q4.51 19.94 4.44 19.73Q4.42 19.64 4.43 19.6L4.5 19.43L4.5 19.25Q4.5 18.75 4.93 18.24Q5.44 17.63 6.43 17.13Q7.49 16.6 8.89 16.31Q10.37 16 12 16Q13.62 16 15.1 16.31Q16.5 16.6 17.56 17.13Q18.55 17.63 19.06 18.24Q19.5 18.75 19.5 19.25L19.5 19.31L19.5 19.37Q19.52 19.49 19.45 19.67Q19.36 19.92 19.13 20.2Q18.58 20.89 17.52 21.51Q16.38 22.18 14.99 22.57Q13.48 23 12 23L11.96 23Z" fill="#005475" fill-opacity="1.000000" fill-rule="evenodd"/>
		<path id="Vector" d="M16.5 9C16.5 10.19 16.02 11.33 15.18 12.18C14.33 13.02 13.19 13.5 12 13.5C10.8 13.5 9.66 13.02 8.81 12.18C7.97 11.33 7.5 10.19 7.5 9C7.5 7.8 7.97 6.66 8.81 5.81C9.66 4.97 10.8 4.5 12 4.5C13.19 4.5 14.33 4.97 15.18 5.81C16.02 6.66 16.5 7.8 16.5 9ZM14.91 10.94Q14.72 11.22 14.47 11.47Q14.22 11.72 13.94 11.91Q13.66 12.1 13.33 12.23Q13.01 12.36 12.68 12.43Q12.34 12.5 12 12.5Q11.65 12.5 11.31 12.43Q10.98 12.36 10.66 12.23Q10.33 12.1 10.05 11.91Q9.77 11.72 9.52 11.47Q9.27 11.22 9.08 10.94Q8.89 10.66 8.76 10.33Q8.63 10.01 8.56 9.68Q8.5 9.34 8.5 9Q8.5 8.65 8.56 8.31Q8.63 7.98 8.76 7.66Q8.89 7.33 9.08 7.05Q9.27 6.77 9.52 6.52Q9.77 6.27 10.05 6.08Q10.33 5.89 10.66 5.76Q10.98 5.63 11.31 5.56Q11.65 5.5 12 5.5Q12.34 5.5 12.68 5.56Q13.01 5.63 13.33 5.76Q13.66 5.89 13.94 6.08Q14.22 6.27 14.47 6.52Q14.72 6.77 14.91 7.05Q15.1 7.33 15.23 7.66Q15.36 7.98 15.43 8.31Q15.5 8.65 15.5 9Q15.5 9.34 15.43 9.68Q15.36 10.01 15.23 10.33Q15.1 10.66 14.91 10.94Z" fill="#005475" fill-opacity="1.000000" fill-rule="evenodd"/>
		<circle id="Ellipse 4" cx="12.000000" cy="12.000000" r="11.500000" stroke="#005475" stroke-opacity="1.000000" stroke-width="1.000000"/>
	</g>
</svg>
