<svg viewBox="0 0 48 48" xmlns="http://www.w3.org/2000/svg" xmlns:xlink="http://www.w3.org/1999/xlink" width="99.000000" height="99.000000" fill="none">
	<rect id="sections" width="48.000000" height="48.000000" x="0.000000" y="0.000000" />
	<circle id="Эллипс 16" cx="24" cy="24" r="23" stroke="rgb(0,84,117)" stroke-width="2" />
	<path id="Vector" d="M32.6668 29.3334L32.6668 23.3334L24.6668 23.3334L24.6668 18.6667L26.6668 18.6667L26.6668 13.3334L21.3335 13.3334L21.3335 18.6667L23.3335 18.6667L23.3335 23.3334L15.3335 23.3334L15.3335 29.3334L13.3335 29.3334L13.3335 34.6667L18.6668 34.6667L18.6668 29.3334L16.6668 29.3334L16.6668 24.6667L23.3335 24.6667L23.3335 29.3334L21.3335 29.3334L21.3335 34.6667L26.6668 34.6667L26.6668 29.3334L24.6668 29.3334L24.6668 24.6667L31.3335 24.6667L31.3335 29.3334L29.3335 29.3334L29.3335 34.6667L34.6668 34.6667L34.6668 29.3334L32.6668 29.3334Z" fill="rgb(0,84,117)" fill-rule="evenodd" />
</svg>
