<svg viewBox="0 0 48 48" xmlns="http://www.w3.org/2000/svg" xmlns:xlink="http://www.w3.org/1999/xlink" width="48.000000" height="48.000000" fill="none">
	<rect id="sections" width="48.000000" height="48.000000" x="0.000000" y="0.000000" />
	<circle id="Эллипс 16" cx="24" cy="24" r="23" stroke="rgb(0,84,117)" stroke-width="2" />
	<g id="Сочетание 3">
		<path id="Vector" d="M26.1818 14.667L16 14.667L16 23.7337L16 26.0004L17.3091 26.0003L17.4546 26.267L17.4546 16.1781L24.7273 16.1781L24.7273 22.2225L30.5455 22.2225L30.5455 35.8225L21.8182 35.8225L22.2546 36.4003L21.5273 37.3337L32 37.3337L32 20.7114L26.1818 14.667ZM26.1818 20.7114L26.1818 16.1781L30.5455 20.7114L26.1818 20.7114Z" fill="rgb(0,84,117)" fill-rule="evenodd" />
		<path id="Vector" d="M28.8483 12L18.6665 12L18.6665 16.0001L20.1211 15.9999L20.1211 13.5111L27.3938 13.5111L27.3938 17.3334L29.5998 19.5557L33.212 19.5556L33.212 33.1556L30.6665 33.1556L30.6665 34.6667L34.6665 34.6667L34.6665 18.0444L28.8483 12ZM28.8483 18.0444L28.8483 13.5111L33.212 18.0444L28.8483 18.0444Z" fill="rgb(0,84,117)" fill-rule="evenodd" />
		<path id="Vector" d="M31.5153 9.33301L21.3335 9.33301L21.3335 13.3332L22.788 13.3329L22.7881 10.8441L30.0608 10.8441L30.0608 14.6664L32.2668 16.8887L35.879 16.8886L35.879 30.4886L33.3335 30.4886L33.3335 31.9997L37.3335 31.9997L37.3335 15.3775L31.5153 9.33301ZM31.5153 15.3775L31.5153 10.8441L35.879 15.3775L31.5153 15.3775Z" fill="rgb(0,84,117)" fill-rule="evenodd" />
		<path id="Vector" d="M21.1998 33.867L22.6665 33.3337L22.6665 32.0003L21.1998 31.467C21.0665 31.067 20.9332 30.667 20.6665 30.267L21.3332 28.9337L20.3998 28.0003L19.0665 28.667C18.6665 28.4003 18.2665 28.267 17.8665 28.1337L17.3332 26.667L15.9998 26.667L15.4665 28.1337C15.0665 28.267 14.6665 28.4003 14.2665 28.667L12.9332 28.0003L11.9998 28.9337L12.6665 30.4003C12.3998 30.8003 12.2665 31.2003 12.1332 31.6003L10.6665 32.0003L10.6665 33.3337L12.1332 33.867C12.2665 34.267 12.3998 34.667 12.6665 35.067L11.9998 36.4003L12.9332 37.3337L14.3998 36.667C14.7998 36.9337 15.1998 37.067 15.5998 37.2003L15.9998 38.667L17.3332 38.667L17.8665 37.2003C18.2665 37.067 18.6665 36.9337 19.0665 36.667L20.3998 37.3337L21.3332 36.4003L20.6665 34.9337C20.9332 34.667 21.0665 34.267 21.1998 33.867ZM16.6665 35.3337C15.1998 35.3337 13.9998 34.1337 13.9998 32.667C13.9998 31.2003 15.1998 30.0003 16.6665 30.0003C18.1332 30.0003 19.3332 31.2003 19.3332 32.667C19.3332 34.1337 18.1332 35.3337 16.6665 35.3337ZM16.6665 33.867C17.3289 33.867 17.8665 33.3294 17.8665 32.667C17.8665 32.0046 17.3289 31.467 16.6665 31.467C16.0041 31.467 15.4665 32.0046 15.4665 32.667C15.4665 33.3294 16.0041 33.867 16.6665 33.867Z" fill="rgb(0,84,117)" fill-rule="evenodd" />
	</g>
</svg>
