<svg viewBox="0 0 24 24" xmlns="http://www.w3.org/2000/svg" xmlns:xlink="http://www.w3.org/1999/xlink" width="24.000000" height="24.000000" fill="none">
	<rect id="copy" width="24.000000" height="24.000000" x="0.000000" y="0.000000" />
	<path id="Эллипс 50" d="M12 2C6.47715 2 2 6.47715 2 12C2 17.5228 6.47715 22 12 22C17.5228 22 22 17.5228 22 12C22 6.47715 17.5228 2 12 2ZM8.92893 4.58579C9.87174 4.19526 10.8954 4 12 4C13.1046 4 14.1283 4.19526 15.0711 4.58579C16.0139 4.97632 16.8758 5.5621 17.6569 6.34315C18.4379 7.12419 19.0237 7.98612 19.4142 8.92893C19.8047 9.87174 20 10.8954 20 12C20 13.1046 19.8047 14.1283 19.4142 15.0711C19.0237 16.0139 18.4379 16.8758 17.6569 17.6569C16.8758 18.4379 16.0139 19.0237 15.0711 19.4142C14.1283 19.8047 13.1046 20 12 20C10.8954 20 9.87174 19.8047 8.92893 19.4142C7.98612 19.0237 7.1242 18.4379 6.34315 17.6569C5.5621 16.8758 4.97631 16.0139 4.58579 15.0711C4.19526 14.1283 4 13.1046 4 12C4 10.8954 4.19526 9.87174 4.58579 8.92893C4.97631 7.98612 5.5621 7.1242 6.34315 6.34315C7.12419 5.5621 7.98612 4.97631 8.92893 4.58579Z" fill="rgb(153,153,153)" fill-rule="evenodd" />
	<path id="Форма 15(Граница)" d="M9.02433 6.00002L9.02431 6.00002C8.54728 6.00001 8.14021 6.1145 7.80312 6.34349C7.72337 6.39766 7.64753 6.45824 7.57561 6.52524C7.39386 6.69454 7.25515 6.88539 7.15948 7.0978C7.05319 7.3338 7.00004 7.5964 7.00003 7.88561L7 9.81926L7.00003 13.1144C7.00002 13.6163 7.11586 14.0215 7.34756 14.3299C7.42172 14.4286 7.50776 14.5174 7.60566 14.5963C7.93969 14.8654 8.41257 15 9.02431 15L11.9757 15L11.9757 13.1145C11.9757 12.9409 11.9756 10.9698 11.9757 10.3914C11.9757 9.81303 11.9757 9.81929 12.5 9.50002L13.9999 9L14 7.88565C14 7.50396 13.92 7.17314 13.7599 6.89319C13.6861 6.76407 13.5953 6.64577 13.4874 6.53829C13.465 6.516 13.4421 6.4944 13.4186 6.4735C13.064 6.15785 12.5831 6.00002 11.9757 6.00002L10.3923 6L9.02433 6.00002ZM8.21558 7.45785C8.35752 7.25716 8.62709 7.15682 9.0243 7.15683L9.02432 7.15683L10.3923 7.15681L11.9757 7.15683C12.3324 7.15683 12.5851 7.23093 12.7338 7.37913C12.7397 7.38502 12.7455 7.39106 12.7511 7.39725C12.8523 7.50923 12.9028 7.67201 12.9028 7.88559L12.9028 9L11.5 9.81929C11.5 9.81929 11.6644 9.74205 11.5 9.81929C11.5 10.1681 10.9999 10.8527 10.9999 11.7841C10.9999 12.3625 10.9999 11.7841 10.9999 11.7841L10.9999 13.8432L9.02433 13.8432C8.66007 13.8432 8.40926 13.7879 8.27189 13.6772C8.15543 13.5833 8.0972 13.3957 8.0972 13.1144L8.09718 9.81925L8.0972 7.88563C8.09721 7.71202 8.13667 7.56943 8.21558 7.45785Z" fill="rgb(153,153,153)" fill-rule="evenodd" />
	<path id="Форма 15(Граница)" d="M13.0243 9.00002L13.0243 9.00002C12.5473 9.00001 12.1402 9.1145 11.8031 9.34349C11.7234 9.39766 11.6475 9.45824 11.5756 9.52523C11.3939 9.69454 11.2551 9.88539 11.1595 10.0978C11.0532 10.3338 11 10.5964 11 10.8856L11 12.8192L11 16.1144C11 16.6163 11.1159 17.0214 11.3476 17.3298C11.4217 17.4286 11.5078 17.5174 11.6057 17.5963C11.9397 17.8654 12.4126 18 13.0243 18L14.6813 18L15.9757 18C16.7336 18 17.2786 17.8017 17.6109 17.4052C17.8703 17.0958 18 16.6655 18 16.1144L18 12.2702L18 10.8856C18 10.504 17.92 10.1731 17.7599 9.89319C17.6861 9.76407 17.5953 9.64577 17.4874 9.53829C17.465 9.516 17.4421 9.4944 17.4186 9.47349C17.064 9.15785 16.5831 9.00002 15.9757 9.00002L14.3923 9L13.0243 9.00002ZM12.2156 10.4578C12.3575 10.2572 12.6271 10.1568 13.0243 10.1568L13.0243 10.1568L14.3923 10.1568L15.9757 10.1568C16.3324 10.1568 16.5851 10.2309 16.7338 10.3791C16.7397 10.385 16.7455 10.3911 16.7511 10.3972C16.8523 10.5092 16.9028 10.672 16.9028 10.8856L16.9028 12.2702L16.9028 16.1144C16.9028 16.4173 16.8563 16.6088 16.7634 16.6889C16.644 16.7917 16.3815 16.8432 15.9757 16.8432L14.6812 16.8432L13.0243 16.8432C12.6601 16.8432 12.4093 16.7878 12.2719 16.6771C12.1554 16.5833 12.0972 16.3957 12.0972 16.1144L12.0972 12.8192L12.0972 10.8856C12.0972 10.712 12.1367 10.5694 12.2156 10.4578Z" fill="rgb(153,153,153)" fill-rule="evenodd" />
</svg>
