<svg viewBox="0 0 24 24" xmlns="http://www.w3.org/2000/svg" xmlns:xlink="http://www.w3.org/1999/xlink" width="24.000000" height="24.000000" fill="none">
	<rect id="icon / add" width="24.000000" height="24.000000" x="0.000000" y="0.000000" fill="rgb(255,255,255)" fill-opacity="0" />
	<ellipse id="Эллипс 1" rx="9.000000" ry="9.000002" cx="12" cy="12.0000019" stroke="rgb(153,153,153)" stroke-width="2.000000" />
	<path id="Слияние" d="M12.5 11.5L12.5 7L11.5 7L11.5 11.5L7 11.5L7 12.5L11.5 12.5L11.5 17L12.5 17L12.5 12.5L17 12.5L17 11.5L12.5 11.5Z" fill="rgb(153,153,153)" fill-rule="evenodd" />
	<path id="Слияние" d="M12.5 11.5L12.5 7L11.5 7L11.5 11.5L7 11.5L7 12.5L11.5 12.5L11.5 17L12.5 17L12.5 12.5L17 12.5L17 11.5L12.5 11.5Z" fill-rule="evenodd" stroke="rgb(153,153,153)" stroke-width="1.000000" />
</svg>
