<svg viewBox="0 0 24 24" xmlns="http://www.w3.org/2000/svg" xmlns:xlink="http://www.w3.org/1999/xlink" width="24.000000" height="24.000000" fill="none">
	<rect id="sections" width="24.000000" height="24.000000" x="0.000000" y="0.000000" fill="rgb(255,255,255)" />
	<circle id="Эллипс 16" cx="12" cy="12" r="11" stroke="rgb(0,84,117)" stroke-width="2.000000" />
	<path id="Слияние" d="M14.6667 6.66699L10.0001 6.66699L10.0001 10.667L10.4667 10.667L10.6001 11.1337L10.6667 11.2003L10.6667 7.33366L14.0001 7.33366L14.0001 10.0003L16.6667 10.0003L16.6667 16.0003L12.6667 16.0003L12.8667 16.3337L12.5334 16.667L17.3334 16.667L17.3334 9.33366L14.6667 6.66699ZM14.6667 9.33366L14.6667 7.33366L16.6667 9.33366L14.6667 9.33366ZM12.6667 14.667L11.9334 14.9337C11.8667 15.1337 11.8001 15.3337 11.6667 15.467L12.0001 16.2003L11.5334 16.667L10.8667 16.3337C10.6667 16.467 10.4667 16.5337 10.2667 16.6003L10.0001 17.3337L9.33342 17.3337L9.13342 16.6003C8.93341 16.5337 8.73341 16.467 8.53341 16.3337L7.80008 16.667L7.33341 16.2003L7.66675 15.5337C7.53341 15.3337 7.46675 15.1337 7.40008 14.9337L6.66675 14.667L6.66675 14.0003L7.40008 13.8003C7.46675 13.6003 7.53341 13.4003 7.66675 13.2003L7.33341 12.467L7.80008 12.0003L8.46675 12.3337C8.66675 12.2003 8.86675 12.1337 9.06675 12.067L9.33342 11.3337L10.0001 11.3337L10.2667 12.067C10.4667 12.1337 10.6667 12.2003 10.8667 12.3337L11.5334 12.0003L12.0001 12.467L11.6667 13.1337C11.8001 13.3337 11.8667 13.5337 11.9334 13.7337L12.6667 14.0003L12.6667 14.667ZM8.33342 14.3337C8.33342 15.067 8.93341 15.667 9.66675 15.667C10.4001 15.667 11.0001 15.067 11.0001 14.3337C11.0001 13.6003 10.4001 13.0003 9.66675 13.0003C8.93341 13.0003 8.33342 13.6003 8.33342 14.3337ZM10.3334 14.3337C10.3334 14.7017 10.0347 15.0003 9.66675 15.0003C9.29875 15.0003 9.00008 14.7017 9.00008 14.3337C9.00008 13.9657 9.29875 13.667 9.66675 13.667C10.0347 13.667 10.3334 13.9657 10.3334 14.3337Z" fill="rgb(0,84,117)" fill-rule="evenodd" />
	<path id="Слияние" d="M14.6667 6.66699L10.0001 6.66699L10.0001 10.667L10.4667 10.667L10.6001 11.1337L10.6667 11.2003L10.6667 7.33366L14.0001 7.33366L14.0001 10.0003L16.6667 10.0003L16.6667 16.0003L12.6667 16.0003L12.8667 16.3337L12.5334 16.667L17.3334 16.667L17.3334 9.33366L14.6667 6.66699ZM14.6667 9.33366L14.6667 7.33366L16.6667 9.33366L14.6667 9.33366ZM12.6667 14.667L11.9334 14.9337C11.8667 15.1337 11.8001 15.3337 11.6667 15.467L12.0001 16.2003L11.5334 16.667L10.8667 16.3337C10.6667 16.467 10.4667 16.5337 10.2667 16.6003L10.0001 17.3337L9.33342 17.3337L9.13342 16.6003C8.93341 16.5337 8.73341 16.467 8.53341 16.3337L7.80008 16.667L7.33341 16.2003L7.66675 15.5337C7.53341 15.3337 7.46675 15.1337 7.40008 14.9337L6.66675 14.667L6.66675 14.0003L7.40008 13.8003C7.46675 13.6003 7.53341 13.4003 7.66675 13.2003L7.33341 12.467L7.80008 12.0003L8.46675 12.3337C8.66675 12.2003 8.86675 12.1337 9.06675 12.067L9.33342 11.3337L10.0001 11.3337L10.2667 12.067C10.4667 12.1337 10.6667 12.2003 10.8667 12.3337L11.5334 12.0003L12.0001 12.467L11.6667 13.1337C11.8001 13.3337 11.8667 13.5337 11.9334 13.7337L12.6667 14.0003L12.6667 14.667ZM8.33342 14.3337C8.33342 15.067 8.93341 15.667 9.66675 15.667C10.4001 15.667 11.0001 15.067 11.0001 14.3337C11.0001 13.6003 10.4001 13.0003 9.66675 13.0003C8.93341 13.0003 8.33342 13.6003 8.33342 14.3337ZM10.3334 14.3337C10.3334 14.7017 10.0347 15.0003 9.66675 15.0003C9.29875 15.0003 9.00008 14.7017 9.00008 14.3337C9.00008 13.9657 9.29875 13.667 9.66675 13.667C10.0347 13.667 10.3334 13.9657 10.3334 14.3337Z" fill="rgb(0,84,117)" fill-rule="evenodd" />
</svg>
