<svg viewBox="0 0 24 24" width="24.000000" height="24.000000" fill="none" xmlns="http://www.w3.org/2000/svg">
	<g id="project">
		<rect id="sections" width="24.000000" height="24.000000" x="0.000000" y="0.000000" fill="none" stroke="none"/>
		<circle id="Эллипс 16" cx="12" cy="12" r="11" stroke="currentColor" stroke-width="2" />
		<path id="Слияние" d="M14.6665 6.66699L9.99984 6.66699L9.99984 10.667L10.4665 10.667L10.5998 11.1337L10.6665 11.2003L10.6665 7.33366L13.9998 7.33366L13.9998 10.0003L16.6665 10.0003L16.6665 16.0003L12.6665 16.0003L12.8665 16.3337L12.5332 16.667L17.3332 16.667L17.3332 9.33366L14.6665 6.66699ZM14.6665 9.33366L14.6665 7.33366L16.6665 9.33366L14.6665 9.33366ZM12.6665 14.667L11.9332 14.9337C11.8665 15.1337 11.7998 15.3337 11.6665 15.467L11.9998 16.2003L11.5332 16.667L10.8665 16.3337C10.6665 16.467 10.4665 16.5337 10.2665 16.6003L9.99984 17.3337L9.33317 17.3337L9.13317 16.6003C8.93317 16.5337 8.73317 16.467 8.53317 16.3337L7.79984 16.667L7.33317 16.2003L7.6665 15.5337C7.53317 15.3337 7.4665 15.1337 7.39984 14.9337L6.6665 14.667L6.6665 14.0003L7.39984 13.8003C7.4665 13.6003 7.53317 13.4003 7.6665 13.2003L7.33317 12.467L7.79984 12.0003L8.4665 12.3337C8.6665 12.2003 8.8665 12.1337 9.0665 12.067L9.33317 11.3337L9.99984 11.3337L10.2665 12.067C10.4665 12.1337 10.6665 12.2003 10.8665 12.3337L11.5332 12.0003L11.9998 12.467L11.6665 13.1337C11.7998 13.3337 11.8665 13.5337 11.9332 13.7337L12.6665 14.0003L12.6665 14.667ZM8.33317 14.3337C8.33317 15.067 8.93317 15.667 9.6665 15.667C10.3998 15.667 10.9998 15.067 10.9998 14.3337C10.9998 13.6003 10.3998 13.0003 9.6665 13.0003C8.93317 13.0003 8.33317 13.6003 8.33317 14.3337ZM10.3332 14.3337C10.3332 14.7017 10.0345 15.0003 9.6665 15.0003C9.2985 15.0003 8.99984 14.7017 8.99984 14.3337C8.99984 13.9657 9.2985 13.667 9.6665 13.667C10.0345 13.667 10.3332 13.9657 10.3332 14.3337Z"  stroke="currentColor" fill-rule="evenodd" />
		<path id="Слияние" d="M14.6665 6.66699L9.99984 6.66699L9.99984 10.667L10.4665 10.667L10.5998 11.1337L10.6665 11.2003L10.6665 7.33366L13.9998 7.33366L13.9998 10.0003L16.6665 10.0003L16.6665 16.0003L12.6665 16.0003L12.8665 16.3337L12.5332 16.667L17.3332 16.667L17.3332 9.33366L14.6665 6.66699ZM14.6665 9.33366L14.6665 7.33366L16.6665 9.33366L14.6665 9.33366ZM12.6665 14.667L11.9332 14.9337C11.8665 15.1337 11.7998 15.3337 11.6665 15.467L11.9998 16.2003L11.5332 16.667L10.8665 16.3337C10.6665 16.467 10.4665 16.5337 10.2665 16.6003L9.99984 17.3337L9.33317 17.3337L9.13317 16.6003C8.93317 16.5337 8.73317 16.467 8.53317 16.3337L7.79984 16.667L7.33317 16.2003L7.6665 15.5337C7.53317 15.3337 7.4665 15.1337 7.39984 14.9337L6.6665 14.667L6.6665 14.0003L7.39984 13.8003C7.4665 13.6003 7.53317 13.4003 7.6665 13.2003L7.33317 12.467L7.79984 12.0003L8.4665 12.3337C8.6665 12.2003 8.8665 12.1337 9.0665 12.067L9.33317 11.3337L9.99984 11.3337L10.2665 12.067C10.4665 12.1337 10.6665 12.2003 10.8665 12.3337L11.5332 12.0003L11.9998 12.467L11.6665 13.1337C11.7998 13.3337 11.8665 13.5337 11.9332 13.7337L12.6665 14.0003L12.6665 14.667ZM8.33317 14.3337C8.33317 15.067 8.93317 15.667 9.6665 15.667C10.3998 15.667 10.9998 15.067 10.9998 14.3337C10.9998 13.6003 10.3998 13.0003 9.6665 13.0003C8.93317 13.0003 8.33317 13.6003 8.33317 14.3337ZM10.3332 14.3337C10.3332 14.7017 10.0345 15.0003 9.6665 15.0003C9.2985 15.0003 8.99984 14.7017 8.99984 14.3337C8.99984 13.9657 9.2985 13.667 9.6665 13.667C10.0345 13.667 10.3332 13.9657 10.3332 14.3337Z"  stroke="currentColor" fill-rule="evenodd" />
	</g>
	<g id="programm">
		<rect id="sections" width="24.000000" height="24.000000" x="0.000000" y="0.000000" fill="none" stroke="none"/>
		<circle id="Эллипс 16" cx="12" cy="12" r="11" stroke="currentColor" stroke-width="2" />
		<path id="Vector" d="M13.0909 7.33301L8 7.33301L8 11.8663L8 12.9997L8.65455 12.9997L8.72728 13.133L8.72728 8.08856L12.3636 8.08856L12.3636 11.1108L15.2727 11.1108L15.2727 17.9108L10.9091 17.9108L11.1273 18.1997L10.7636 18.6663L16 18.6663L16 10.3552L13.0909 7.33301ZM13.0909 10.3552L13.0909 8.08856L15.2727 10.3552L13.0909 10.3552Z" stroke="currentColor" fill-rule="evenodd" />
		<path id="Vector" d="M14.4244 6L9.3335 6L9.3335 8.00007L10.0608 7.99995L10.0608 6.75556L13.6971 6.75556L13.6971 8.6667L14.8002 9.77784L16.6062 9.77778L16.6062 16.5778L15.3335 16.5778L15.3335 17.3333L17.3335 17.3333L17.3335 9.02222L14.4244 6ZM14.4244 9.02222L14.4244 6.75556L16.6062 9.02222L14.4244 9.02222Z" stroke="currentColor" fill-rule="evenodd" />
		<path id="Vector" d="M15.7574 4.66699L10.6665 4.66699L10.6665 6.66706L11.3938 6.66694L11.3938 5.42255L15.0301 5.42255L15.0301 7.33369L16.1332 8.44483L17.9392 8.44477L17.9392 15.2448L16.6665 15.2448L16.6665 16.0003L18.6665 16.0003L18.6665 7.68921L15.7574 4.66699ZM15.7574 7.68921L15.7574 5.42255L17.9392 7.68921L15.7574 7.68921Z"  stroke="currentColor" fill-rule="evenodd" />
		<path id="Vector" d="M10.6002 16.933L11.3335 16.6663L11.3335 15.9997L10.6002 15.733C10.5335 15.533 10.4668 15.333 10.3335 15.133L10.6668 14.4663L10.2002 13.9997L9.5335 14.333C9.3335 14.1997 9.1335 14.133 8.9335 14.0663L8.66683 13.333L8.00016 13.333L7.7335 14.0663C7.5335 14.133 7.3335 14.1997 7.1335 14.333L6.46683 13.9997L6.00016 14.4663L6.3335 15.1997C6.20016 15.3997 6.1335 15.5997 6.06683 15.7997L5.3335 15.9997L5.3335 16.6663L6.06683 16.933C6.1335 17.133 6.20016 17.333 6.3335 17.533L6.00016 18.1997L6.46683 18.6663L7.20016 18.333C7.40016 18.4663 7.60016 18.533 7.80016 18.5997L8.00016 19.333L8.66683 19.333L8.9335 18.5997C9.1335 18.533 9.3335 18.4663 9.5335 18.333L10.2002 18.6663L10.6668 18.1997L10.3335 17.4663C10.4668 17.333 10.5335 17.133 10.6002 16.933ZM8.3335 17.6663C7.60016 17.6663 7.00016 17.0663 7.00016 16.333C7.00016 15.5997 7.60016 14.9997 8.3335 14.9997C9.06683 14.9997 9.66683 15.5997 9.66683 16.333C9.66683 17.0663 9.06683 17.6663 8.3335 17.6663ZM8.3335 16.933C8.6647 16.933 8.9335 16.6642 8.9335 16.333C8.9335 16.0018 8.6647 15.733 8.3335 15.733C8.0023 15.733 7.7335 16.0018 7.7335 16.333C7.7335 16.6642 8.0023 16.933 8.3335 16.933Z"  stroke="currentColor" fill-rule="evenodd" />
	</g>
</svg>
