<svg viewBox="0 0 120.667 120.667" xmlns="http://www.w3.org/2000/svg" xmlns:xlink="http://www.w3.org/1999/xlink" width="120.666687" height="120.666687" fill="none" customFrame="#000000">
	<path id="Vector" d="M61.0112 120.667C61.0112 120.667 61.0112 120.667 59.6554 120.667C43.3858 120.667 28.4719 113.888 17.6255 103.041C6.77903 92.1947 0 77.2809 0 59.6554C0 46.0974 4.06742 33.8951 12.2022 23.0487C20.3371 12.2022 32.5393 4.06742 47.4532 1.35581L47.4532 13.5581C36.6067 17.6255 28.4719 23.0487 21.6929 29.8277C16.2697 39.3184 12.2022 48.809 12.2022 59.6554C12.2022 73.2135 17.6255 85.4157 25.7603 93.5506C33.8951 101.685 43.3858 105.753 54.2322 107.109L54.2322 73.2135L32.5393 62.367C29.8277 61.0112 33.8951 50.1648 37.9625 51.5206L66.4345 65.0787L66.4345 107.109L66.4345 115.243C66.4345 117.955 65.0787 119.311 61.0112 120.667ZM56.9438 0C58.2996 0 59.6554 0 61.0112 0C77.2809 0 90.8389 6.77903 103.041 17.6255C113.888 28.4719 120.667 43.3858 120.667 59.6554C120.667 67.7903 117.955 75.9251 115.243 82.7041C113.888 86.7715 112.532 90.839 108.464 94.9064C107.109 97.618 104.397 100.33 100.33 104.397C98.9738 105.753 97.618 105.753 97.618 104.397L98.9738 89.4831C101.685 84.0599 101.685 84.0599 104.397 78.6367C107.109 73.2135 108.464 66.4345 108.464 59.6554C108.464 47.4532 103.041 35.2509 93.5506 25.7603C92.1948 24.4045 89.4831 23.0487 88.1273 20.3371L88.1273 113.888C84.0599 115.243 79.9925 116.599 75.9251 117.955L75.9251 14.9139C73.2135 13.5581 69.1461 12.2022 66.4345 12.2022L66.4345 58.2996L54.2322 51.5206L54.2322 12.2022L54.2322 4.06742C54.2322 2.71161 54.2322 0 56.9438 0Z" fill="rgb(255,255,255)" fill-rule="evenodd" />
</svg>
