<svg width="18.000000" height="18.831299" viewBox="0 0 28 28.8313" fill="none" xmlns="http://www.w3.org/2000/svg" xmlns:xlink="http://www.w3.org/1999/xlink">
	<desc>
			Created with Pixso.
	</desc>
	<defs/>
	<path id="Vector" d="M9.2 6.19C9.11 6.19 9.07 6.19 8.99 6.19C8.69 6.19 8.4 6.23 8.1 6.31C7.85 6.4 7.56 6.52 7.3 6.65C7.01 6.78 6.76 6.95 6.5 7.16C6.25 7.33 6.04 7.54 5.83 7.79C5.66 8 5.49 8.25 5.33 8.5C5.2 8.76 5.07 9.05 4.99 9.31C4.91 9.6 4.86 9.9 4.82 10.15C4.78 10.44 4.78 10.74 4.78 11.03C4.82 11.33 4.86 11.62 4.95 11.92C5.03 12.17 5.12 12.42 5.24 12.63L11.01 9.35L5.75 13.52L5.2 13.94L7.51 15.29C7.89 14.66 8.57 14.23 9.32 14.23C10.5 14.23 11.43 15.16 11.43 16.34C11.43 16.72 11.34 17.06 11.13 17.39L13.66 18.83L13.66 14.28L10.76 12.34L12.1 10.86L14.59 14.57L14.5 13.98C14.5 13.98 13.83 8.5 13.62 7.28L13.28 7.58L12.86 7.87C12.69 7.66 12.48 7.45 12.23 7.24C12.02 7.03 11.77 6.86 11.51 6.74C11.26 6.61 10.97 6.48 10.71 6.4C10.42 6.31 10.12 6.23 9.87 6.19C9.7 6.19 9.58 6.19 9.41 6.19C9.37 6.19 9.28 6.19 9.2 6.19ZM10.08 0C9.83 0 9.58 0 9.32 0.04C8.69 0.08 8.06 0.16 7.43 0.33C6.8 0.54 6.17 0.75 5.58 1.05C4.95 1.34 4.4 1.72 3.85 2.14C3.31 2.61 2.8 3.07 2.38 3.58C1.92 4.08 1.54 4.63 1.24 5.22C0.91 5.81 0.65 6.4 0.44 6.99C0.28 7.62 0.15 8.25 0.06 8.88C-0.02 9.56 -0.02 10.19 0.02 10.82C0.06 11.5 0.15 12.13 0.32 12.76C0.53 13.39 0.74 14.02 1.03 14.61C1.33 15.2 1.71 15.79 2.13 16.34L3.94 14.91C3.68 14.57 3.47 14.23 3.26 13.86C3.1 13.52 2.97 13.14 2.84 12.76C2.76 12.34 2.67 11.96 2.63 11.58C2.63 11.16 2.63 10.78 2.67 10.4C2.72 9.98 2.8 9.6 2.93 9.22C3.05 8.84 3.22 8.46 3.39 8.13C3.6 7.79 3.81 7.45 4.11 7.11C4.36 6.82 4.65 6.52 4.99 6.27C5.33 6.02 5.66 5.77 6.04 5.6C6.42 5.43 6.8 5.26 7.18 5.18C7.56 5.05 7.94 4.97 8.36 4.97C8.74 4.92 9.11 4.92 9.53 4.97C9.91 5.05 10.29 5.13 10.67 5.22C11.05 5.35 11.43 5.51 11.77 5.72C12.14 5.89 12.48 6.15 12.78 6.4C13.07 6.65 13.37 6.95 13.62 7.28L14.04 6.99L16.02 5.43L18 3.87C17.57 3.32 17.11 2.82 16.61 2.4C16.06 1.93 15.51 1.55 14.96 1.26C14.38 0.92 13.79 0.67 13.15 0.46C12.57 0.29 11.89 0.16 11.26 0.08C10.88 0.04 10.46 0 10.08 0Z" 
	fill="#F0F0F0" fill-opacity="1.000000" fill-rule="nonzero"/>
</svg>
