<svg viewBox="0 0 48 48" xmlns="http://www.w3.org/2000/svg" xmlns:xlink="http://www.w3.org/1999/xlink" width="48.000000" height="48.000000" fill="none">
	<rect id="sections" width="48.000000" height="48.000000" x="0.000000" y="0.000000" />
	<circle id="Эллипс 16" cx="24" cy="24" r="23" stroke="rgb(0,84,117)" stroke-width="2" />
	<path id="Слияние" d="M34.6668 24L13.3335 24L13.3335 13.3334L14.6668 13.3334L14.6668 22.6667L34.6668 22.6667L34.6668 24ZM33.3335 15.4265L26.6402 19.2398L21.3602 16.5998L16.0002 18.7465L16.0002 20.1865L21.3068 18.0665L26.6935 20.7598L33.3335 16.9598L33.3335 15.4265ZM13.3335 34.6667L13.3335 25.3334L34.6668 25.3334L34.6668 34.6667L13.3335 34.6667ZM14.6668 28L20.0002 28L20.0002 26.6667L14.6668 26.6667L14.6668 28ZM21.3335 28L26.6668 28L26.6668 26.6667L21.3335 26.6667L21.3335 28ZM28.0002 28L33.3335 28L33.3335 26.6667L28.0002 26.6667L28.0002 28ZM14.6668 30.6667L20.0002 30.6667L20.0002 29.3334L14.6668 29.3334L14.6668 30.6667ZM21.3335 30.6667L26.6668 30.6667L26.6668 29.3334L21.3335 29.3334L21.3335 30.6667ZM28.0002 30.6667L33.3335 30.6667L33.3335 29.3334L28.0002 29.3334L28.0002 30.6667ZM14.6668 33.3334L20.0002 33.3334L20.0002 32L14.6668 32L14.6668 33.3334ZM21.3335 33.3334L26.6668 33.3334L26.6668 32L21.3335 32L21.3335 33.3334ZM28.0002 33.3334L33.3335 33.3334L33.3335 32L28.0002 32L28.0002 33.3334Z" fill="rgb(0,84,117)" fill-rule="evenodd" />
</svg>
