<svg viewBox="0 0 36 36" xmlns="http://www.w3.org/2000/svg" xmlns:xlink="http://www.w3.org/1999/xlink" width="36.000000" height="36.000000" fill="none">
	<rect id="тип=согласование" width="36.000000" height="36.000000" x="0.000000" y="0.000000" />
	<circle id="Эллипс 4" cx="18" cy="18" r="17" stroke="rgb(0,84,117)" stroke-width="2" />
	<rect id="Прямоугольник 1" width="24.000000" height="14.769231" x="6.000000" y="11.000000" rx="2.000000" stroke="rgb(0,84,117)" stroke-width="2" />
	<path id="Линия 4" d="M20 20L27 20" stroke="rgb(0,84,117)" stroke-width="2" />
	<path id="Линия 5" d="M20 23L27 23" stroke="rgb(0,84,117)" stroke-width="2" />
	<rect id="Прямоугольник 2" width="4.000000" height="3.000000" x="23.000000" y="13.000000" fill="rgb(0,84,117)" />
	<path id="" d="M13.8789 23.1401C12.89 23.1401 11.9967 22.9237 11.1992 22.4907C10.4017 22.0555 9.7762 21.4551 9.32275 20.6895C8.8693 19.9238 8.64258 19.0602 8.64258 18.0986C8.64258 17.1393 8.87158 16.2769 9.32959 15.5112C9.7876 14.7456 10.4154 14.1463 11.2129 13.7134C12.0104 13.2782 12.9036 13.0605 13.8926 13.0605C14.6947 13.0605 15.4272 13.2007 16.0903 13.481C16.7534 13.7612 17.314 14.1668 17.772 14.6978L16.5962 15.8052C15.8853 15.0396 15.0125 14.6567 13.978 14.6567C13.3058 14.6567 12.7031 14.8037 12.1699 15.0977C11.639 15.3916 11.2243 15.8006 10.9258 16.3247C10.6273 16.8465 10.478 17.4378 10.478 18.0986C10.478 18.7617 10.6273 19.3553 10.9258 19.8794C11.2243 20.4012 11.639 20.8091 12.1699 21.103C12.7031 21.397 13.3058 21.5439 13.978 21.5439C15.0125 21.5439 15.8853 21.1566 16.5962 20.3818L17.772 21.5029C17.314 22.0339 16.7511 22.4395 16.0835 22.7197C15.4159 23 14.681 23.1401 13.8789 23.1401Z" fill="rgb(0,84,117)" fill-rule="nonzero" />
</svg>
