<svg viewBox="0 0 48 48" xmlns="http://www.w3.org/2000/svg" xmlns:xlink="http://www.w3.org/1999/xlink" width="48.000000" height="48.000000" fill="none">
	<rect id="icon / re" width="48.000000" height="48.000000" x="0.000000" y="0.000000" />
	<circle id="Эллипс 4" cx="24" cy="24" r="23" stroke="rgb(0,84,117)" stroke-width="2" />
	<rect id="Прямоугольник 1" width="32.000000" height="19.692308" x="8.000000" y="14.666626" rx="2.000000" stroke="rgb(0,84,117)" stroke-width="2" />
	<path id="Линия 1" d="M12 17.6666L20 17.6666L20 19.6666L12 19.6666L12 17.6666ZM12.02 19.6466L12 19.6666C11.44 19.6666 11 19.2266 11 18.6666C11 18.1066 11.44 17.6666 12 17.6666L12.02 17.6866L12.02 19.6466ZM19.98 17.6866L20 17.6666C20.56 17.6666 21 18.1066 21 18.6666C21 19.2266 20.56 19.6666 20 19.6666L19.98 19.6466L19.98 17.6866Z" fill="rgb(0,84,117)" fill-rule="nonzero" />
	<path id="Линия 2" d="M12 21.6666L21.3333 21.6666L21.3333 23.6666L12 23.6666L12 21.6666ZM12.02 23.6466L12 23.6666C11.44 23.6666 11 23.2266 11 22.6666C11 22.1066 11.44 21.6666 12 21.6666L12.02 21.6866L12.02 23.6466ZM21.3133 21.6866L21.3333 21.6666C21.8933 21.6666 22.3333 22.1066 22.3333 22.6666C22.3333 23.2266 21.8933 23.6666 21.3333 23.6666L21.3133 23.6466L21.3133 21.6866Z" fill="rgb(0,84,117)" fill-rule="nonzero" />
	<path id="Линия 4" d="M25.3335 26.6666L36.0002 26.6666" stroke="rgb(0,84,117)" stroke-width="2" />
	<path id="Линия 5" d="M25.3335 30.6666L36.0002 30.6666" stroke="rgb(0,84,117)" stroke-width="2" />
	<rect id="Прямоугольник 2" width="5.333332" height="4.000000" x="30.666504" y="17.333374" fill="rgb(0,84,117)" />
</svg>
