<svg viewBox="0 0 24 24" xmlns="http://www.w3.org/2000/svg" xmlns:xlink="http://www.w3.org/1999/xlink" width="24.000000" height="24.000000" fill="none">
	<rect id="resend" width="24.000000" height="24.000000" x="0.000000" y="0.000000" />
	<path id="Форма 10" d="M8 20C8 20 8.00004 19 8 18C6 18 4.99997 17 4.99997 15C4.99997 13 6.99995 12 9.99997 12C13 12 18 12 18 12L14.5 15.5L15.9999 17L21.5 11L16 5L14.5 6.5L18 10C18 10 13.5 10 10 10C6.00002 10 2.99999 11.5 3 15C3.00001 18.5 5.00004 20 8 20Z" fill="rgb(153,153,153)" fill-rule="evenodd" />
</svg>
