<svg viewBox="0 0 32 38.1538" xmlns="http://www.w3.org/2000/svg" xmlns:xlink="http://www.w3.org/1999/xlink" width="32.000000" height="38.153809" fill="none" customFrame="#000000">
	<path id="Слияние" d="M31 0.000244141L1 0.000244141C0.447715 0.000244141 0 0.447959 0 1.00024L0 37.1541C0 37.7064 0.447715 38.1541 1 38.1541L31 38.1541C31.5523 38.1541 32 37.7064 32 37.1541L32 1.00024C32 0.447959 31.5523 0.000244141 31 0.000244141ZM30 2.00024L2 2.00024L2 36.1541L30 36.1541L30 2.00024ZM26.6079 15.179L26.6079 18.2874L25.1694 18.2874L25.1694 16.5002L18.7241 16.5002L18.7241 18.2874L17.271 18.2874L17.2827 15.179L17.6431 15.179C17.7687 15.1734 17.8853 15.1472 17.993 15.1004C18.339 14.95 18.5925 14.5865 18.7534 14.01C18.9663 13.2542 19.0962 12.1721 19.1431 10.7639L19.2397 8.10083L25.395 8.10083L25.395 15.179L26.6079 15.179ZM20.5112 10.9075C20.4722 11.9954 20.3843 12.9016 20.2476 13.6262C20.1128 14.3508 19.897 14.8684 19.6001 15.179L23.8599 15.179L23.8599 9.41919L20.5728 9.41919L20.5112 10.9075ZM27.5556 22.8165L5.90476 22.8165L5.90476 23.8165L27.5556 23.8165C27.8356 23.8165 28.0556 23.5965 28.0556 23.3165C28.0556 23.0365 27.8356 22.8165 27.5556 22.8165ZM27.5556 25.9961L4.23932 25.9961L4.23932 26.9961L27.5556 26.9961C27.8356 26.9961 28.0556 26.7761 28.0556 26.4961C28.0556 26.2161 27.8356 25.9961 27.5556 25.9961ZM27.5556 29.1754L4.23932 29.1754L4.23932 30.1754L27.5556 30.1754C27.8356 30.1754 28.0556 29.9554 28.0556 29.6754C28.0556 29.3954 27.8356 29.1754 27.5556 29.1754ZM27.5556 32.3549L4.23932 32.3549L4.23932 33.3549L27.5556 33.3549C27.8356 33.3549 28.0556 33.1349 28.0556 32.8549C28.0556 32.5749 27.8356 32.3549 27.5556 32.3549Z" fill="rgb(0,84,117)" fill-rule="evenodd" />
</svg>
