<svg viewBox="0 0 32 38.1538" xmlns="http://www.w3.org/2000/svg" xmlns:xlink="http://www.w3.org/1999/xlink" width="32.000000" height="38.153809" fill="none" customFrame="#000000">
	<path id="Слияние" d="M31 0.000244141L1 0.000244141C0.447715 0.000244141 0 0.447959 0 1.00024L0 37.1541C0 37.7064 0.447715 38.1541 1 38.1541L31 38.1541C31.5523 38.1541 32 37.7064 32 37.1541L32 1.00024C32 0.447959 31.5523 0.000244141 31 0.000244141ZM30 2.00024L2 2.00024L2 36.1541L30 36.1541L30 2.00024ZM20.6319 8.30591C21.3584 8.30591 21.9913 8.42602 22.5303 8.66626C22.972 8.8624 23.3291 9.12755 23.6016 9.4617L23.6017 9.46181C23.6629 9.53689 23.7198 9.61546 23.7725 9.69751C23.7919 9.72757 23.8107 9.75802 23.8288 9.78885C24.0803 10.2167 24.2061 10.7185 24.2061 11.2942C24.2061 11.8244 24.096 12.2959 23.8757 12.7086C23.8436 12.7686 23.8092 12.8274 23.7725 12.885C23.7138 12.9772 23.6498 13.065 23.5806 13.1484C23.3108 13.4731 22.9608 13.731 22.5303 13.9221C21.9913 14.1624 21.3584 14.2825 20.6319 14.2825L18.7364 14.2825L18.7364 16.7053L17.1748 16.7053L17.1748 8.30591L20.6319 8.30591ZM20.5586 12.9612C21.2383 12.9612 21.7539 12.8176 22.1055 12.5305C22.2081 12.4466 22.2958 12.3524 22.3686 12.2478C22.5467 11.9919 22.6358 11.6741 22.6358 11.2942C22.6358 10.9095 22.5451 10.5889 22.3637 10.3325C22.2919 10.2309 22.2058 10.1393 22.1055 10.0579C21.7539 9.7688 21.2383 9.62427 20.5586 9.62427L18.7364 9.62427L18.7364 12.9612L20.5586 12.9612ZM27.5556 22.8165L5.90476 22.8165L5.90476 23.8165L27.5556 23.8165C27.8356 23.8165 28.0556 23.5965 28.0556 23.3165C28.0556 23.0365 27.8356 22.8165 27.5556 22.8165ZM27.5556 25.9961L4.23932 25.9961L4.23932 26.9961L27.5556 26.9961C27.8356 26.9961 28.0556 26.7761 28.0556 26.4961C28.0556 26.2161 27.8356 25.9961 27.5556 25.9961ZM27.5556 29.1754L4.23932 29.1754L4.23932 30.1754L27.5556 30.1754C27.8356 30.1754 28.0556 29.9554 28.0556 29.6754C28.0556 29.3954 27.8356 29.1754 27.5556 29.1754ZM27.5556 32.3549L4.23932 32.3549L4.23932 33.3549L27.5556 33.3549C27.8356 33.3549 28.0556 33.1349 28.0556 32.8549C28.0556 32.5749 27.8356 32.3549 27.5556 32.3549Z" fill="rgb(0,84,117)" fill-rule="evenodd" />
</svg>
