<svg viewBox="0 0 52 52" xmlns="http://www.w3.org/2000/svg" xmlns:xlink="http://www.w3.org/1999/xlink" width="52.000000" height="52.000000" fill="none" customFrame="#000000">
	<rect id="sections" width="52.000000" height="52.000000" x="0.000000" y="0.000000" fill="rgb(255,255,255)" fill-opacity="0" />
	<g id="Сочетание 1">
		<path id="Vector" d="M38.6523 10.1111L14 10.1111C13.4477 10.1111 13 10.5588 13 11.1111L13 40.8889C13 41.4411 13.4477 41.8889 14 41.8889L38.6523 41.8889C39.2046 41.8889 39.6523 41.4411 39.6523 40.8889L39.6523 11.1111C39.6523 10.5588 39.2046 10.1111 38.6523 10.1111ZM37.6523 12.1111L15 12.1111L15 39.8889L37.6523 39.8889L37.6523 12.1111Z" fill="rgb(153,153,153)" fill-rule="evenodd" />
		<path id="Форма 2" d="M20.1756 19.3369L33.5018 19.3369M19.1505 23.4374L33.5018 23.4374M19.1505 27.5375L33.5018 27.5375M19.1505 31.638L33.5018 31.638" stroke="rgb(153,153,153)" stroke-linecap="round" stroke-width="1.000000" />
		<path id="Vector" d="M7.08244 4.03823L7.08244 13.3262C7.08244 14.183 6.76825 15.0047 6.20901 15.6105C5.64976 16.2164 4.89125 16.5567 4.10036 16.5567C3.30946 16.5567 2.55096 16.2164 1.99171 15.6105C1.43246 15.0047 1.11828 14.183 1.11828 13.3262L1.11828 3.23059C1.11828 2.69508 1.31464 2.18151 1.66417 1.80285C2.0137 1.4242 2.48777 1.21147 2.98208 1.21147C3.47639 1.21147 3.95045 1.4242 4.29998 1.80285C4.64951 2.18151 4.84588 2.69508 4.84588 3.23059L4.84588 11.7109C4.84588 11.9251 4.76733 12.1305 4.62752 12.282C4.48771 12.4334 4.29808 12.5185 4.10036 12.5185C3.90263 12.5185 3.71301 12.4334 3.5732 12.282C3.43338 12.1305 3.35484 11.9251 3.35484 11.7109L3.35484 4.03823L2.23656 4.03823L2.23656 11.7109C2.23656 12.2464 2.43292 12.7599 2.78245 13.1386C3.13198 13.5173 3.60605 13.73 4.10036 13.73C4.59467 13.73 5.06873 13.5173 5.41826 13.1386C5.76779 12.7599 5.96416 12.2464 5.96416 11.7109L5.96416 3.23059C5.96416 2.37378 5.64997 1.55207 5.09073 0.946217C4.53148 0.340364 3.77297 4.48334e-16 2.98208 0C2.19118 6.27667e-16 1.43268 0.340364 0.87343 0.946217C0.314182 1.55207 6.62154e-16 2.37378 0 3.23059L0 13.3262C2.64862e-15 14.5043 0.432001 15.6341 1.20097 16.4672C1.96993 17.3002 3.01288 17.7682 4.10036 17.7682C5.18784 17.7682 6.23078 17.3002 6.99975 16.4672C7.76872 15.6341 8.20072 14.5043 8.20072 13.3262L8.20072 4.03823L7.08244 4.03823Z" opacity="0" fill="rgb(58.4375,58.4375,58.4375)" fill-rule="evenodd" transform="matrix(0.707107,-0.707107,0.707107,0.707107,27.3513,33.3363)" />
		<path id="Vector" d="M6.58244 3.53823L6.58244 13.3262C6.58244 13.7717 6.49798 14.1784 6.32906 14.5464C6.20914 14.8076 6.04666 15.0493 5.84161 15.2714C5.56226 15.574 5.25047 15.7892 4.90624 15.9169C4.65491 16.0101 4.38628 16.0567 4.10036 16.0567C3.81444 16.0567 3.54581 16.0101 3.29448 15.9169C2.95025 15.7892 2.63846 15.574 2.35911 15.2714C2.15406 15.0493 1.99158 14.8076 1.87166 14.5464C1.70274 14.1784 1.61828 13.7717 1.61828 13.3262L1.61828 3.23059C1.61828 2.97651 1.667 2.74521 1.76444 2.53667C1.83085 2.39454 1.9199 2.26298 2.03158 2.14199C2.18766 1.9729 2.36177 1.85361 2.55388 1.78414C2.68785 1.73569 2.83059 1.71147 2.98208 1.71147C3.13357 1.71147 3.2763 1.73569 3.41027 1.78414C3.60239 1.85361 3.77649 1.9729 3.93258 2.14199C4.04426 2.26298 4.1333 2.39453 4.19971 2.53666C4.29716 2.7452 4.34588 2.97651 4.34588 3.23059L4.34588 11.7109C4.34588 11.7736 4.33279 11.8293 4.30663 11.8779C4.29412 11.9011 4.27861 11.9228 4.26012 11.9428C4.22721 11.9785 4.19097 12.0015 4.1514 12.012C4.13496 12.0163 4.11795 12.0185 4.10036 12.0185C4.08277 12.0185 4.06575 12.0163 4.04931 12.012C4.00975 12.0015 3.97351 11.9785 3.9406 11.9428C3.9221 11.9228 3.9066 11.9011 3.89408 11.8779C3.86792 11.8292 3.85484 11.7736 3.85484 11.7109L3.85484 3.53823L1.73656 3.53823L1.73656 11.7109C1.73656 12.095 1.80708 12.4483 1.94813 12.7707C2.05966 13.0257 2.21531 13.2614 2.41505 13.4777C2.66991 13.7538 2.95473 13.9539 3.26951 14.078C3.52649 14.1793 3.80344 14.23 4.10036 14.23C4.39727 14.23 4.67422 14.1793 4.9312 14.078C5.24599 13.9539 5.53081 13.7538 5.78567 13.4777C5.98541 13.2614 6.14105 13.0257 6.25258 12.7707C6.39363 12.4483 6.46416 12.095 6.46416 11.7109L6.46416 3.23059C6.46416 2.65503 6.35789 2.12635 6.14536 1.64455C5.98034 1.27047 5.75127 0.924642 5.45813 0.607077C5.08 0.197442 4.6575 -0.0985145 4.19061 -0.280793C3.81629 -0.426931 3.41345 -0.5 2.98208 -0.5C2.55071 -0.5 2.14786 -0.426931 1.77354 -0.280792C1.30666 -0.0985133 0.884152 0.197443 0.506029 0.607077C0.212892 0.924642 -0.016185 1.27047 -0.181201 1.64455C-0.393734 2.12635 -0.5 2.65503 -0.5 3.23059L-0.5 13.3262C-0.5 14.0932 -0.357982 14.7973 -0.0739462 15.4384C0.144532 15.9316 0.447036 16.3876 0.833565 16.8063C1.33496 17.3495 1.89515 17.7413 2.51413 17.9817C3.00578 18.1727 3.53452 18.2682 4.10036 18.2682C4.66619 18.2682 5.19493 18.1727 5.68657 17.9818C6.30556 17.7413 6.86576 17.3495 7.36715 16.8063C7.75368 16.3876 8.05619 15.9316 8.27467 15.4384C8.5587 14.7972 8.70072 14.0932 8.70072 13.3262L8.70072 3.53823L6.58244 3.53823ZM7.08244 4.53823L7.08244 4.03823L8.20072 4.03823L8.20072 13.3262C8.20072 14.5043 7.76872 15.6341 6.99975 16.4672C6.23078 17.3002 5.18784 17.7682 4.10036 17.7682C3.01288 17.7682 1.96993 17.3002 1.20097 16.4672C0.432001 15.6341 0 14.5043 0 13.3262L0 3.23059C0 2.37378 0.314182 1.55207 0.87343 0.946217C1.43268 0.340364 2.19118 0 2.98208 0C3.77297 0 4.53148 0.340364 5.09073 0.946217C5.64997 1.55207 5.96416 2.37378 5.96416 3.23059L5.96416 11.7109C5.96416 12.2464 5.76779 12.7599 5.41826 13.1386C5.06873 13.5173 4.59467 13.73 4.10036 13.73C3.60605 13.73 3.13198 13.5173 2.78245 13.1386C2.43292 12.7599 2.23656 12.2464 2.23656 11.7109L2.23656 4.03823L3.35484 4.03823L3.35484 11.7109C3.35484 11.9251 3.43338 12.1305 3.5732 12.282C3.71301 12.4334 3.90263 12.5185 4.10036 12.5185C4.29808 12.5185 4.48771 12.4334 4.62752 12.282C4.76733 12.1305 4.84588 11.9251 4.84588 11.7109L4.84588 3.23059C4.84588 2.69508 4.64951 2.18151 4.29998 1.80285C3.95045 1.4242 3.47639 1.21147 2.98208 1.21147C2.48777 1.21147 2.0137 1.4242 1.66417 1.80285C1.31464 2.18151 1.11828 2.69508 1.11828 3.23059L1.11828 13.3262C1.11828 14.183 1.43246 15.0047 1.99171 15.6105C2.55096 16.2164 3.30946 16.5567 4.10036 16.5567C4.89125 16.5567 5.64976 16.2164 6.20901 15.6105C6.76825 15.0047 7.08244 14.183 7.08244 13.3262L7.08244 4.53823Z" opacity="0" fill="rgb(255,255,255)" fill-rule="evenodd" transform="matrix(0.707107,-0.707107,0.707107,0.707107,27.3513,33.3363)" />
	</g>
	<circle id="Эллипс 7" cx="26" cy="26" r="25" stroke="rgb(153,153,153)" stroke-width="2.000000" />
</svg>
