<svg viewBox="0 0 48 48" xmlns="http://www.w3.org/2000/svg" xmlns:xlink="http://www.w3.org/1999/xlink" width="48.000000" height="48.000000" fill="none">
	<rect id="sections" width="48.000000" height="48.000000" x="0.000000" y="0.000000" />
	<circle id="Эллипс 16" cx="24" cy="24" r="23" stroke="rgb(153,153,153)" stroke-width="2" />
	<path id="Слияние" d="M17.7667 17.2785C17.1667 16.7148 17.4667 15.5876 18.3667 15.1648C19.2667 14.6012 20.9167 15.3057 20.9167 15.3057C20.9167 15.3057 21.5167 14.3194 22.8667 14.3194C24.6667 14.3194 25.2667 15.1648 25.2667 15.1648C25.2667 15.1648 26.0167 13.333 28.1167 13.333C30.3667 13.333 30.8167 14.883 30.8167 14.883C30.8167 14.883 31.2667 14.0376 32.7667 14.1785C34.4167 14.3194 34.1167 15.7285 34.1167 15.7285C34.1167 15.7285 35.7667 15.5876 35.7667 16.8557C35.7667 17.8421 34.2667 17.8421 34.2667 17.8421C34.2667 17.8421 34.3896 18.044 34.3713 18.3173C34.6228 18.8335 34.764 19.4134 34.764 20.0263C34.764 20.633 34.6254 21.2063 34.3894 21.6957L34.3094 21.8423L34.176 21.9357C34.136 21.9623 31.0427 24.1757 28.2374 26.677C28.832 26.945 29.4694 27.137 30.176 27.2423L30.1374 27.241C30.42 27.261 30.7054 27.2703 30.9934 27.2703C32.316 27.2703 33.5894 27.0597 34.696 26.6957L32.0294 29.0023L33.2947 30.6903C31.8454 30.557 30.4467 30.245 29.1934 29.7943C28.5254 29.4863 27.9054 29.0903 27.364 28.629C27.8614 29.121 28.2814 29.693 28.584 30.2477C29.0387 31.6477 29.308 33.1303 29.3627 34.6957L27.5894 33.3623L25.3427 36.0863C25.7254 35.125 25.936 34.0757 25.936 32.9783C25.936 32.6437 25.9174 32.3143 25.8747 31.9823C25.7174 31.2197 25.44 30.501 25.0827 29.8823C22.496 32.6823 20.0694 35.749 19.7427 36.1597C19.2667 36.8863 18.4454 37.3663 17.5107 37.3663C17.4587 37.3663 17.4067 37.365 17.372 37.3623C17.3014 37.3663 17.2294 37.369 17.156 37.369C16.0787 37.369 15.1054 36.9157 14.4294 36.209C13.7387 35.2237 13.3334 34.0237 13.3334 32.7303C13.3334 32.2357 13.3934 31.7543 13.496 31.3357L13.496 31.029L14.0214 30.6983C16.8854 28.8357 19.5974 26.7597 22.0454 24.5757C23.4932 23.0658 24.8766 21.4936 26.2275 19.8111C24.6029 19.314 24.3667 17.983 24.3667 17.983C24.3667 17.983 22.7167 18.8285 21.5167 17.8421C19.7167 16.433 18.5167 16.0103 17.7667 17.2785ZM27.7751 19.9891C27.0264 20.9444 26.1178 22.0613 25.1654 23.137C25.2534 23.1263 25.3427 23.121 25.4334 23.121C25.9614 23.121 26.4454 23.3143 26.8187 23.633C27.3067 24.0637 27.636 24.669 27.7094 25.3637C30.1094 23.2437 32.5894 21.3637 33.2374 20.9543C33.3454 20.669 33.4054 20.3597 33.4054 20.037C33.4054 19.8017 33.3738 19.5738 33.3146 19.3572C33.2829 19.369 33.2503 19.3806 33.2167 19.3921C30.9667 20.2376 30.3667 18.8285 30.3667 18.8285C30.3667 18.8285 29.6723 19.9157 27.7751 19.9891ZM17.7894 30.397C18.6574 30.6917 19.3827 31.2957 19.8427 32.0957L19.82 32.0783C20.06 32.4837 20.224 32.937 20.296 33.4423C21.296 32.149 22.776 30.4023 24.296 28.7677C24.2974 28.7263 24.2987 28.685 24.2987 28.6423C24.2987 28.0157 24.0547 27.4477 23.6587 27.0303C23.2334 26.653 22.6814 26.4143 22.1507 26.3197C20.5214 27.7183 18.8187 29.0317 16.8334 30.389C16.9134 30.3797 16.9934 30.3743 17.076 30.3743C17.1587 30.3743 17.2387 30.3797 17.3 30.389C17.3774 30.381 17.456 30.3757 17.536 30.3757C17.616 30.3757 17.6947 30.381 17.7894 30.397ZM17.5347 36.0397C18.0307 36.0397 18.4627 35.7703 18.696 35.3623L18.688 35.381C18.868 34.981 18.968 34.5357 18.968 34.0677C18.968 33.7343 18.9174 33.413 18.8294 33.1343L16.5627 35.001L16.0907 34.4143C15.6334 33.765 15.364 32.9717 15.364 32.1157C15.364 32.009 15.368 31.905 15.3774 31.8037C15.424 31.5677 15.5174 31.349 15.6427 31.1623L14.7014 31.7717C14.6347 32.085 14.5987 32.4103 14.5987 32.745C14.5987 33.6997 14.8894 34.5877 15.376 35.3077C15.8254 35.7597 16.4467 36.0383 17.1334 36.0383C17.2147 36.0383 17.2947 36.0357 17.356 36.0277C17.4147 36.0357 17.4734 36.0397 17.5347 36.0397ZM17.312 31.6663C17.1814 31.6663 17.06 31.7077 16.9627 31.7757L16.9614 31.777C16.8627 31.829 16.7867 31.9183 16.7507 32.021C16.7427 32.0877 16.7387 32.1557 16.7387 32.225C16.7387 32.4983 16.8014 32.7557 16.9094 32.9757L18.0707 32.017C17.9014 31.8583 17.6947 31.7383 17.456 31.669L17.3654 31.669C17.348 31.6677 17.3307 31.6663 17.312 31.6663Z" fill="rgb(153,153,153)" fill-rule="evenodd" />
</svg>
