<svg viewBox="0 0 48 48" xmlns="http://www.w3.org/2000/svg" xmlns:xlink="http://www.w3.org/1999/xlink" width="48.000000" height="48.000000" fill="none">
	<rect id="icon / post" width="48.000000" height="48.000000" x="0.000000" y="0.000000" />
	<circle id="Эллипс 4" cx="24" cy="24" r="23" stroke="rgb(0,84,117)" stroke-width="2" />
	<path id="Слияние" d="M34.6668 21.333L13.3335 21.333L13.3335 37.333L34.6668 37.333L34.6668 21.333ZM33.3335 22.6663L33.3335 35.9997L14.6668 35.9997L14.6668 22.6663L33.3335 22.6663ZM20.5335 27.9997L20.0002 27.9997L20.0002 27.8663C20.8002 27.5997 21.3335 26.7997 21.3335 25.9997C21.3335 24.933 20.4002 23.9997 19.3335 23.9997C18.2668 23.9997 17.3335 24.933 17.3335 25.9997C17.3335 26.933 17.8668 27.5997 18.6668 27.8663L18.6668 27.9997L18.1335 27.9997C16.9335 27.9997 16.0002 28.933 16.0002 30.133L16.0002 33.333L22.6668 33.333L22.6668 30.133C22.6668 28.933 21.7335 27.9997 20.5335 27.9997ZM32.0002 25.333L24.0002 25.333L24.0002 26.6663L32.0002 26.6663L32.0002 25.333ZM24.0002 27.9997L32.0002 27.9997L32.0002 29.333L24.0002 29.333L24.0002 27.9997ZM28.0002 30.6663L24.0002 30.6663L24.0002 31.9997L28.0002 31.9997L28.0002 30.6663Z" fill="rgb(0,84,117)" fill-rule="evenodd" />
	<path id="Линия 13" d="M0 0L8 0" stroke="rgb(0,84,117)" stroke-width="1" transform="matrix(0,-1,1,0,24,21.333)" />
	<circle id="Эллипс 27" cx="24" cy="12.6669922" r="2" fill="rgb(0,84,117)" />
</svg>
