<svg viewBox="0 0 48 48" xmlns="http://www.w3.org/2000/svg" xmlns:xlink="http://www.w3.org/1999/xlink" width="40.000000" height="40.000000" fill="none" clip-path="url(#clipPath_0)" customFrame="url(#clipPath_0)">
	<defs>
		<clipPath id="clipPath_0">
			<rect width="40.000000" height="40.000000" x="0.500000" y="0.500000" rx="23.500000" fill="rgb(255,255,255)" />
		</clipPath>
	</defs>
	<rect id="icon / GM-large" width="47.000000" height="47.000000" x="0.500000" y="0.500000" rx="23.500000" stroke="rgb(0,84,117)" stroke-width="1" />
	<path id="Vector" d="M24.1798 40C24.1798 40 24.1798 40 23.8202 40C19.5056 40 15.5506 38.2022 12.6742 35.3258C9.79775 32.4494 8 28.4944 8 23.8202C8 20.2247 9.07865 16.9888 11.236 14.1124C13.3933 11.236 16.6292 9.07865 20.5843 8.35955L20.5843 11.5955C17.7079 12.6742 15.5506 14.1124 13.7528 15.9101C12.3146 18.427 11.236 20.9438 11.236 23.8202C11.236 27.4157 12.6742 30.6517 14.8315 32.809C16.9888 34.9663 19.5056 36.0449 22.382 36.4045L22.382 27.4157L16.6292 24.5393C15.9101 24.1798 16.9888 21.3034 18.0674 21.6629L25.618 25.2584L25.618 36.4045L25.618 38.5618C25.618 39.2809 25.2584 39.6404 24.1798 40ZM23.1011 8C23.4607 8 23.8202 8 24.1798 8C28.4944 8 32.0899 9.79775 35.3258 12.6742C38.2022 15.5506 40 19.5056 40 23.8202C40 25.9775 39.2809 28.1348 38.5618 29.9326C38.2022 31.0112 37.8427 32.0899 36.764 33.1685C36.4045 33.8876 35.6854 34.6067 34.6067 35.6854C34.2472 36.0449 33.8876 36.0449 33.8876 35.6854L34.2472 31.7303C34.9663 30.2921 34.9663 30.2921 35.6854 28.8539C36.4045 27.4157 36.764 25.618 36.764 23.8202C36.764 20.5843 35.3258 17.3483 32.809 14.8315C32.4494 14.4719 31.7303 14.1124 31.3708 13.3933L31.3708 38.2022C30.2921 38.5618 29.2135 38.9213 28.1348 39.2809L28.1348 11.9551C27.4157 11.5955 26.3371 11.236 25.618 11.236L25.618 23.4607L22.382 21.6629L22.382 11.236L22.382 9.07865C22.382 8.7191 22.382 8 23.1011 8Z" fill="rgb(0,84,117)" fill-rule="evenodd" />
</svg>
