<svg viewBox="0 0 21.1367 23.2197" xmlns="http://www.w3.org/2000/svg" xmlns:xlink="http://www.w3.org/1999/xlink" width="21.136688" height="23.219727" fill="none" customFrame="#000000">
	<g id="Group 23">
		<path id="Vector(Граница)" d="M1 0L17.0556 0C17.6078 0 18.0556 0.447715 18.0556 1L18.0556 15.6111C18.0556 15.8764 18.0556 15.6111 17.0556 14.6111C15.5219 17.5971 17.0556 14.6111 15.5218 17.5971L13.9378 20.5278L14.9328 21.5278L1 21.5278C0.447715 21.5278 0 21.0801 0 20.5278L0 1C0 0.447715 0.447715 0 1 0ZM17.0556 1L1 1L1 20.5278C4.13083 20.5278 11.4893 20.5278 13.9378 20.5278C15.5279 17.6111 15.5278 17.6111 17.0556 14.6111L17.0556 1Z" fill="rgb(0,84,117)" fill-rule="evenodd" />
		<path id="Слияние" d="M4.52782 5.44434L13.1945 5.44434C13.4745 5.44434 13.6945 5.66434 13.6945 5.94434C13.6945 6.22434 13.4745 6.44434 13.1945 6.44434L4.52782 6.44434C4.24782 6.44434 4.02782 6.22434 4.02782 5.94434C4.02782 5.66434 4.24782 5.44434 4.52782 5.44434ZM13.1945 8.11094L3.86115 8.11094C3.58115 8.11094 3.36115 8.33094 3.36115 8.61094C3.36115 8.89094 3.58115 9.11094 3.86115 9.11094L13.1945 9.11094C13.4745 9.11094 13.6945 8.89094 13.6945 8.61094C13.6945 8.33094 13.4745 8.11094 13.1945 8.11094ZM3.86115 10.7777L13.1945 10.7777C13.4745 10.7777 13.6945 10.9977 13.6945 11.2777C13.6945 11.5577 13.4745 11.7777 13.1945 11.7777L3.86115 11.7777C3.58115 11.7777 3.36115 11.5577 3.36115 11.2777C3.36115 10.9977 3.58115 10.7777 3.86115 10.7777ZM3.86115 13.4443L10.1211 13.4443L10.1211 14.4443L3.86115 14.4443C3.58115 14.4443 3.36115 14.2243 3.36115 13.9443C3.36115 13.6643 3.58115 13.4443 3.86115 13.4443Z" fill="rgb(0,84,117)" fill-rule="evenodd" />
		<path id="Vector" d="M4.60606 2.62626L4.60606 8.66667C4.60606 9.22389 4.40173 9.75829 4.03803 10.1523C3.67432 10.5463 3.18103 10.7677 2.66667 10.7677C2.15231 10.7677 1.65901 10.5463 1.29531 10.1523C0.931601 9.75829 0.727273 9.22389 0.727273 8.66667L0.727273 2.10101C0.727273 1.75275 0.854978 1.41875 1.08229 1.17249C1.30961 0.926226 1.61792 0.787879 1.93939 0.787879C2.26087 0.787879 2.56918 0.926226 2.79649 1.17249C3.02381 1.41875 3.15152 1.75275 3.15152 2.10101L3.15152 7.61616C3.15152 7.75547 3.10043 7.88907 3.00951 7.98757C2.91858 8.08608 2.79526 8.14142 2.66667 8.14142C2.53808 8.14142 2.41475 8.08608 2.32383 7.98757C2.2329 7.88907 2.18182 7.75547 2.18182 7.61616L2.18182 2.62626L1.45455 2.62626L1.45455 7.61616C1.45455 7.96443 1.58225 8.29843 1.80957 8.54469C2.03688 8.79095 2.34519 8.92929 2.66667 8.92929C2.98814 8.92929 3.29645 8.79095 3.52377 8.54469C3.75108 8.29843 3.87879 7.96443 3.87879 7.61616L3.87879 2.10101C3.87879 1.54379 3.67446 1.00939 3.31075 0.615372C2.94705 0.221356 2.45375 2.91574e-16 1.93939 0C1.42503 4.08203e-16 0.931742 0.221356 0.568035 0.615372C0.204328 1.00939 4.30632e-16 1.54379 0 2.10101L0 8.66667C1.72253e-15 9.43285 0.280951 10.1676 0.781048 10.7094C1.28115 11.2512 1.95942 11.5556 2.66667 11.5556C3.37391 11.5556 4.05219 11.2512 4.55229 10.7094C5.05238 10.1676 5.33333 9.43285 5.33333 8.66667L5.33333 2.62626L4.60606 2.62626Z" fill="rgb(0,84,117)" fill-rule="evenodd" transform="matrix(0.707107,-0.707107,0.707107,0.707107,9.1944,15.0488)" />
		<path id="Vector" d="M4.10606 8.60402L4.10606 8.66667C4.10606 8.93368 4.05492 9.17685 3.95265 9.39617C3.88262 9.54635 3.78861 9.68535 3.67062 9.81317C3.5062 9.99129 3.32279 10.1171 3.12039 10.1905C2.97849 10.2419 2.82724 10.2677 2.66667 10.2677C2.50609 10.2677 2.35485 10.2419 2.21294 10.1905C2.01054 10.1171 1.82713 9.99129 1.66271 9.81317C1.54472 9.68535 1.45072 9.54635 1.38068 9.39617C1.27841 9.17685 1.22727 8.93368 1.22727 8.66667L1.22727 8.60402C1.28857 8.70176 1.3602 8.79503 1.44217 8.88383C1.6252 9.08211 1.82978 9.22634 2.05592 9.3165C2.24451 9.3917 2.44809 9.42929 2.66667 9.42929C2.88524 9.42929 3.08882 9.3917 3.27741 9.3165C3.50355 9.22634 3.70814 9.08211 3.89117 8.88383C3.97313 8.79503 4.04476 8.70177 4.10606 8.60402ZM4.37879 2.12626L4.37879 2.10101C4.37879 1.70395 4.30585 1.33882 4.15998 1.00562C4.04482 0.742593 3.88421 0.499463 3.67815 0.276232C3.41496 -0.00889423 3.12083 -0.215471 2.79577 -0.343498C2.53085 -0.447833 2.2454 -0.5 1.93939 -0.5C1.63339 -0.5 1.34793 -0.447833 1.08302 -0.343498C0.757956 -0.215471 0.463827 -0.00889418 0.200634 0.276232C-0.00542606 0.499463 -0.166033 0.742593 -0.281188 1.00562C-0.427063 1.33882 -0.5 1.70395 -0.5 2.10101L-0.5 8.66667C-0.5 9.18823 -0.403816 9.66743 -0.211449 10.1043C-0.0615143 10.4448 0.146851 10.7595 0.413647 11.0486C0.757002 11.4205 1.14067 11.6894 1.56466 11.8553C1.90588 11.9888 2.27322 12.0556 2.66667 12.0556C3.06012 12.0556 3.42745 11.9888 3.76868 11.8553C4.19266 11.6894 4.57633 11.4205 4.91969 11.0486C5.18648 10.7595 5.39485 10.4448 5.54478 10.1043C5.73715 9.66743 5.83333 9.18823 5.83333 8.66667L5.83333 2.12626L4.37879 2.12626ZM1.22727 2.12626L2.65152 2.12626L2.65152 2.10101C2.65152 1.95848 2.6236 1.82943 2.56776 1.71387C2.53261 1.64111 2.48638 1.57369 2.42909 1.51163C2.34481 1.42032 2.25096 1.35696 2.14754 1.32155C2.082 1.2991 2.01262 1.28788 1.93939 1.28788C1.86617 1.28788 1.79678 1.2991 1.73124 1.32155C1.62782 1.35696 1.53398 1.42032 1.4497 1.51163C1.3924 1.57369 1.34618 1.64111 1.31102 1.71387C1.25519 1.82943 1.22727 1.95848 1.22727 2.10101L1.22727 2.12626ZM4.60606 3.12626L4.60606 2.62626L5.33333 2.62626L5.33333 8.66667C5.33333 9.43285 5.05238 10.1676 4.55229 10.7094C4.05219 11.2512 3.37391 11.5556 2.66667 11.5556C1.95942 11.5556 1.28115 11.2512 0.781048 10.7094C0.280951 10.1676 0 9.43285 0 8.66667L0 2.10101C0 1.54379 0.204328 1.00939 0.568035 0.615372C0.931742 0.221356 1.42503 0 1.93939 0C2.45375 0 2.94705 0.221356 3.31075 0.615372C3.67446 1.00939 3.87879 1.54379 3.87879 2.10101L3.87879 7.61616C3.87879 7.96443 3.75108 8.29843 3.52377 8.54469C3.29645 8.79095 2.98814 8.92929 2.66667 8.92929C2.34519 8.92929 2.03688 8.79095 1.80957 8.54469C1.58225 8.29843 1.45455 7.96443 1.45455 7.61616L1.45455 2.62626L2.18182 2.62626L2.18182 7.61616C2.18182 7.75547 2.2329 7.88907 2.32383 7.98757C2.41475 8.08608 2.53808 8.14142 2.66667 8.14142C2.79526 8.14142 2.91858 8.08608 3.00951 7.98757C3.10043 7.88907 3.15152 7.75547 3.15152 7.61616L3.15152 2.10101C3.15152 1.75275 3.02381 1.41875 2.79649 1.17249C2.56918 0.926226 2.26087 0.787879 1.93939 0.787879C1.61792 0.787879 1.30961 0.926226 1.08229 1.17249C0.854978 1.41875 0.727273 1.75275 0.727273 2.10101L0.727273 8.66667C0.727273 9.22389 0.931601 9.75829 1.29531 10.1523C1.65901 10.5463 2.15231 10.7677 2.66667 10.7677C3.18103 10.7677 3.67432 10.5463 4.03803 10.1523C4.40173 9.75829 4.60606 9.22389 4.60606 8.66667L4.60606 3.12626Z" fill="rgb(255,255,255)" fill-opacity="0" fill-rule="evenodd" transform="matrix(0.707107,-0.707107,0.707107,0.707107,9.1944,15.0488)" />
	</g>
</svg>
