<svg viewBox="0 0 48 48" xmlns="http://www.w3.org/2000/svg" xmlns:xlink="http://www.w3.org/1999/xlink" width="48.000000" height="48.000000" fill="none">
	<rect id="icon / add" width="48.000000" height="48.000000" x="0.000000" y="0.000000" fill="rgb(255,255,255)" fill-opacity="0" />
	<ellipse id="Эллипс 1" rx="18.000000" ry="18.000002" cx="24" cy="24.0000019" fill="rgb(255,255,255)" fill-opacity="0.90196079" />
	<path id="Vector" d="M24.002 44C12.9602 43.988 4.01212 35.0408 4 24L4 23.6C4.21988 12.6091 13.2701 3.85594 24.2634 4.0018C35.2567 4.14764 44.0714 13.1378 43.9996 24.1308C43.9278 35.1236 34.9963 43.9978 24.002 44ZM14.001 22L14.001 26L22.0018 26L22.0018 34L26.0022 34L26.0022 26L34.003 26L34.003 22L26.0022 22L26.0022 14L22.0018 14L22.0018 22L14.001 22Z" fill="rgb(204,204,204)" fill-rule="nonzero" />
</svg>
