<svg viewBox="0 0 48 48" xmlns="http://www.w3.org/2000/svg" xmlns:xlink="http://www.w3.org/1999/xlink" width="48.000000" height="48.000000" fill="none">
	<rect id="icon / post" width="48.000000" height="48.000000" x="0.000000" y="0.000000" />
	<circle id="Эллипс 4" cx="24" cy="24" r="23" stroke="rgb(153,153,153)" stroke-width="2" />
	<path id="Слияние" d="M34.6667 21.333L13.3334 21.333L13.3334 37.333L34.6667 37.333L34.6667 21.333ZM33.3334 22.6663L33.3334 35.9997L14.6667 35.9997L14.6667 22.6663L33.3334 22.6663ZM20.5334 27.9997L20 27.9997L20 27.8663C20.8 27.5997 21.3334 26.7997 21.3334 25.9997C21.3334 24.933 20.4 23.9997 19.3334 23.9997C18.2667 23.9997 17.3334 24.933 17.3334 25.9997C17.3334 26.933 17.8667 27.5997 18.6667 27.8663L18.6667 27.9997L18.1334 27.9997C16.9334 27.9997 16 28.933 16 30.133L16 33.333L22.6667 33.333L22.6667 30.133C22.6667 28.933 21.7334 27.9997 20.5334 27.9997ZM32 25.333L24 25.333L24 26.6663L32 26.6663L32 25.333ZM24 27.9997L32 27.9997L32 29.333L24 29.333L24 27.9997ZM28 30.6663L24 30.6663L24 31.9997L28 31.9997L28 30.6663Z" fill="rgb(153,153,153)" fill-rule="evenodd" />
	<path id="Линия 13" d="M0 0L8 0" stroke="rgb(153,153,153)" stroke-width="1" transform="matrix(0,-1,1,0,24,21.333)" />
	<circle id="Эллипс 27" cx="24" cy="12.6669922" r="2" fill="rgb(153,153,153)" />
</svg>
