<svg viewBox="0 0 24 24" xmlns="http://www.w3.org/2000/svg" xmlns:xlink="http://www.w3.org/1999/xlink" width="24.000000" height="24.000000" fill="none">
	<rect id="icon/attach policy" width="24.000000" height="24.000000" x="0.000000" y="0.000000" fill="rgb(255,255,255)" fill-opacity="0" />
	<g id="Group 23">
		<path id="Vector(Граница)" d="M4.47217 1.38892L20.5277 1.38892C21.08 1.38892 21.5277 1.83663 21.5277 2.38892L21.5277 17C21.5277 17.2653 21.5277 17 20.5277 16C18.9941 18.986 20.5277 16 18.994 18.986L17.41 21.9167L18.4049 22.9167L4.47217 22.9167C3.91988 22.9167 3.47217 22.469 3.47217 21.9167L3.47217 2.38892C3.47217 1.83663 3.91988 1.38892 4.47217 1.38892ZM20.5277 2.38892L4.47217 2.38892L4.47217 21.9167C7.603 21.9167 14.9615 21.9167 17.41 21.9167C19 19 19 19 20.5277 16L20.5277 2.38892Z" fill="rgb(153,153,153)" fill-rule="evenodd" />
		<path id="Слияние" d="M8.00005 6.83325L16.6667 6.83325C16.9467 6.83325 17.1667 7.05325 17.1667 7.33325C17.1667 7.61325 16.9467 7.83325 16.6667 7.83325L8.00005 7.83325C7.72005 7.83325 7.50005 7.61325 7.50005 7.33325C7.50005 7.05325 7.72005 6.83325 8.00005 6.83325ZM16.6667 9.49985L7.33337 9.49985C7.05337 9.49985 6.83337 9.71985 6.83337 9.99985C6.83337 10.2799 7.05337 10.4999 7.33337 10.4999L16.6667 10.4999C16.9467 10.4999 17.1667 10.2799 17.1667 9.99985C17.1667 9.71985 16.9467 9.49985 16.6667 9.49985ZM7.33337 12.1666L16.6667 12.1666C16.9467 12.1666 17.1667 12.3866 17.1667 12.6666C17.1667 12.9466 16.9467 13.1666 16.6667 13.1666L7.33337 13.1666C7.05337 13.1666 6.83337 12.9466 6.83337 12.6666C6.83337 12.3866 7.05337 12.1666 7.33337 12.1666ZM7.33337 14.8332L13.5934 14.8332L13.5934 15.8332L7.33337 15.8332C7.05337 15.8332 6.83337 15.6132 6.83337 15.3332C6.83337 15.0532 7.05337 14.8332 7.33337 14.8332Z" fill="rgb(153,153,153)" fill-rule="evenodd" />
		<path id="Vector" d="M4.60606 2.62626L4.60606 8.66667C4.60606 9.22389 4.40173 9.75829 4.03803 10.1523C3.67432 10.5463 3.18103 10.7677 2.66667 10.7677C2.15231 10.7677 1.65901 10.5463 1.29531 10.1523C0.931601 9.75829 0.727273 9.22389 0.727273 8.66667L0.727273 2.10101C0.727273 1.75275 0.854978 1.41875 1.08229 1.17249C1.30961 0.926226 1.61792 0.787879 1.93939 0.787879C2.26087 0.787879 2.56918 0.926226 2.79649 1.17249C3.02381 1.41875 3.15152 1.75275 3.15152 2.10101L3.15152 7.61616C3.15152 7.75547 3.10043 7.88907 3.00951 7.98757C2.91858 8.08608 2.79526 8.14142 2.66667 8.14142C2.53808 8.14142 2.41475 8.08608 2.32383 7.98757C2.2329 7.88907 2.18182 7.75547 2.18182 7.61616L2.18182 2.62626L1.45455 2.62626L1.45455 7.61616C1.45455 7.96443 1.58225 8.29843 1.80957 8.54469C2.03688 8.79095 2.34519 8.92929 2.66667 8.92929C2.98814 8.92929 3.29645 8.79095 3.52377 8.54469C3.75108 8.29843 3.87879 7.96443 3.87879 7.61616L3.87879 2.10101C3.87879 1.54379 3.67446 1.00939 3.31075 0.615372C2.94705 0.221356 2.45375 2.91574e-16 1.93939 0C1.42503 4.08203e-16 0.931742 0.221356 0.568035 0.615372C0.204328 1.00939 4.30632e-16 1.54379 0 2.10101L0 8.66667C1.72253e-15 9.43285 0.280951 10.1676 0.781048 10.7094C1.28115 11.2512 1.95942 11.5556 2.66667 11.5556C3.37391 11.5556 4.05219 11.2512 4.55229 10.7094C5.05238 10.1676 5.33333 9.43285 5.33333 8.66667L5.33333 2.62626L4.60606 2.62626Z" fill="rgb(153,153,153)" fill-rule="evenodd" transform="matrix(0.707107,-0.707107,0.707107,0.707107,12.6666,16.438)" />
		<path id="Vector" d="M4.10606 8.59901L4.10606 8.66667C4.10606 8.79833 4.092 8.92683 4.06388 9.05218C4.04564 9.13349 4.02148 9.21347 3.99141 9.29212C3.9348 9.44017 3.86054 9.57484 3.76862 9.69613C3.73792 9.73663 3.70526 9.77565 3.67062 9.81317C3.57007 9.9221 3.45858 10.0123 3.33615 10.0837C3.29347 10.1086 3.24947 10.1312 3.20414 10.1516C3.10087 10.1979 2.99521 10.2304 2.88716 10.249C2.81473 10.2614 2.74124 10.2677 2.66667 10.2677C2.5921 10.2677 2.5186 10.2614 2.44617 10.249C2.33812 10.2304 2.23247 10.1979 2.12919 10.1516C2.08387 10.1312 2.03987 10.1086 1.9972 10.0837C1.87476 10.0123 1.76327 9.9221 1.66271 9.81317C1.62806 9.77563 1.59539 9.73661 1.56469 9.69609C1.47278 9.57481 1.39853 9.44016 1.34193 9.29212C1.31185 9.21347 1.2877 9.13349 1.26946 9.05219C1.24133 8.92683 1.22727 8.79833 1.22727 8.66667L1.22727 8.59901C1.24603 8.62985 1.26569 8.66006 1.28625 8.68966C1.33349 8.75767 1.38546 8.82239 1.44217 8.88383C1.54254 8.99256 1.65292 9.0858 1.77331 9.16354C1.84472 9.20965 1.91965 9.25031 1.99811 9.28552C2.11552 9.3382 2.23573 9.37641 2.35873 9.40014C2.4595 9.41958 2.56215 9.42929 2.66667 9.42929C2.77118 9.42929 2.87383 9.41958 2.9746 9.40014C3.0976 9.37641 3.21781 9.3382 3.33523 9.28552C3.41368 9.25031 3.48861 9.20965 3.56002 9.16354C3.68041 9.0858 3.7908 8.99256 3.89117 8.88383C3.94787 8.8224 3.99983 8.75769 4.04706 8.6897C4.06762 8.66009 4.08729 8.62986 4.10606 8.59901ZM4.37879 2.12626L4.37879 2.10101C4.37879 1.90783 4.35937 1.71872 4.32054 1.53368C4.29099 1.3929 4.25021 1.25448 4.19819 1.11842C4.11871 0.910556 4.01691 0.718392 3.89279 0.541928C3.82743 0.449009 3.75589 0.360444 3.67815 0.276232C3.53141 0.117258 3.36983 -0.0184202 3.1934 -0.130803C3.09559 -0.193112 2.99321 -0.24826 2.88627 -0.296247C2.71793 -0.371785 2.5456 -0.42632 2.36927 -0.459851C2.22853 -0.486617 2.08523 -0.5 1.93939 -0.5C1.79356 -0.5 1.65027 -0.486617 1.50952 -0.459852C1.33319 -0.426321 1.16086 -0.371786 0.992519 -0.296247C0.885583 -0.248262 0.783209 -0.193116 0.685396 -0.130809C0.508969 -0.0184251 0.347381 0.117255 0.200634 0.276232C0.122903 0.36044 0.0513599 0.449002 -0.0139943 0.541916C-0.138118 0.718383 -0.23992 0.910551 -0.319399 1.11842C-0.371425 1.25449 -0.412211 1.39292 -0.441756 1.53371C-0.480586 1.71873 -0.5 1.90784 -0.5 2.10101L-0.5 8.66667C-0.5 8.92074 -0.474319 9.16939 -0.422956 9.41262C-0.384431 9.59505 -0.331458 9.77444 -0.264038 9.95077C-0.159054 10.2253 -0.0242845 10.4788 0.14027 10.7112C0.223733 10.8291 0.314859 10.9415 0.413647 11.0486C0.606763 11.2578 0.819551 11.4359 1.05201 11.5829C1.17622 11.6614 1.30604 11.7311 1.44148 11.7918C1.66076 11.8902 1.88524 11.9611 2.11491 12.0044C2.29562 12.0385 2.47953 12.0556 2.66667 12.0556C2.8538 12.0556 3.03771 12.0385 3.21842 12.0044C3.44809 11.9611 3.67257 11.8902 3.89186 11.7918C4.0273 11.7311 4.15712 11.6614 4.28133 11.5829C4.51379 11.4359 4.72657 11.2578 4.91969 11.0486C5.01848 10.9415 5.10961 10.8291 5.19307 10.7112C5.35762 10.4788 5.49239 10.2253 5.59737 9.95077C5.66479 9.77445 5.71775 9.59509 5.75628 9.41268C5.80765 9.16943 5.83333 8.92076 5.83333 8.66667L5.83333 2.12626L4.37879 2.12626ZM1.22727 2.12626L2.65152 2.12626L2.65152 2.10101C2.65152 2.03025 2.64371 1.9613 2.62809 1.89417C2.61886 1.8545 2.6069 1.81546 2.59222 1.77706C2.56115 1.69579 2.51985 1.62261 2.46834 1.55751C2.45585 1.54174 2.44277 1.52645 2.42909 1.51163C2.34481 1.42032 2.25096 1.35696 2.14754 1.32155C2.082 1.2991 2.01262 1.28788 1.93939 1.28788C1.86617 1.28788 1.79678 1.2991 1.73124 1.32155C1.62782 1.35696 1.53398 1.42032 1.4497 1.51163C1.43601 1.52645 1.42293 1.54175 1.41045 1.55752C1.35893 1.62261 1.31764 1.69579 1.28657 1.77706C1.27188 1.81547 1.25993 1.85451 1.2507 1.89418C1.23508 1.96131 1.22727 2.03025 1.22727 2.10101L1.22727 2.12626ZM4.60606 3.12626L4.60606 2.62626L5.33333 2.62626L5.33333 8.66667C5.33333 9.43285 5.05238 10.1676 4.55229 10.7094C4.05219 11.2512 3.37391 11.5556 2.66667 11.5556C1.95942 11.5556 1.28115 11.2512 0.781048 10.7094C0.280951 10.1676 0 9.43285 0 8.66667L0 2.10101C0 1.54379 0.204328 1.00939 0.568035 0.615372C0.931742 0.221356 1.42503 0 1.93939 0C2.45375 0 2.94705 0.221356 3.31075 0.615372C3.67446 1.00939 3.87879 1.54379 3.87879 2.10101L3.87879 7.61616C3.87879 7.96443 3.75108 8.29843 3.52377 8.54469C3.29645 8.79095 2.98814 8.92929 2.66667 8.92929C2.34519 8.92929 2.03688 8.79095 1.80957 8.54469C1.58225 8.29843 1.45455 7.96443 1.45455 7.61616L1.45455 2.62626L2.18182 2.62626L2.18182 7.61616C2.18182 7.75547 2.2329 7.88907 2.32383 7.98757C2.41475 8.08608 2.53808 8.14142 2.66667 8.14142C2.79526 8.14142 2.91858 8.08608 3.00951 7.98757C3.10043 7.88907 3.15152 7.75547 3.15152 7.61616L3.15152 2.10101C3.15152 1.75275 3.02381 1.41875 2.79649 1.17249C2.56918 0.926226 2.26087 0.787879 1.93939 0.787879C1.61792 0.787879 1.30961 0.926226 1.08229 1.17249C0.854978 1.41875 0.727273 1.75275 0.727273 2.10101L0.727273 8.66667C0.727273 9.22389 0.931601 9.75829 1.29531 10.1523C1.65901 10.5463 2.15231 10.7677 2.66667 10.7677C3.18103 10.7677 3.67432 10.5463 4.03803 10.1523C4.40173 9.75829 4.60606 9.22389 4.60606 8.66667L4.60606 3.12626Z" fill="rgb(255,255,255)" fill-opacity="0" fill-rule="evenodd" transform="matrix(0.707107,-0.707107,0.707107,0.707107,12.6666,16.438)" />
	</g>
</svg>
