<svg viewBox="0 0 25 25" xmlns="http://www.w3.org/2000/svg" xmlns:xlink="http://www.w3.org/1999/xlink" width="25.000000" height="25.000000" fill="none">
	<rect id="icon/ attach" width="25.000000" height="25.000000" x="0.000000" y="0.000000" fill="rgb(255,255,255)" fill-opacity="0" />
	<path id="Vector" d="M16.7764 6.8618L16.7764 17.752C16.7764 18.7566 16.3773 19.72 15.667 20.4304C14.9566 21.1407 13.9932 21.5398 12.9885 21.5398C11.9839 21.5398 11.0205 21.1407 10.3101 20.4304C9.59975 19.72 9.20067 18.7566 9.20067 17.752L9.20067 5.91483C9.20067 5.28695 9.45009 4.68479 9.89407 4.24081C10.338 3.79683 10.9402 3.54741 11.5681 3.54741C12.196 3.54741 12.7981 3.79683 13.2421 4.24081C13.6861 4.68479 13.9355 5.28695 13.9355 5.91483L13.9355 15.858C13.9355 16.1092 13.8357 16.35 13.6582 16.5276C13.4806 16.7052 13.2397 16.805 12.9885 16.805C12.7374 16.805 12.4965 16.7052 12.3189 16.5276C12.1413 16.35 12.0416 16.1092 12.0416 15.858L12.0416 6.8618L10.6211 6.8618L10.6211 15.858C10.6211 16.4859 10.8705 17.0881 11.3145 17.532C11.7585 17.976 12.3607 18.2254 12.9885 18.2254C13.6164 18.2254 14.2186 17.976 14.6626 17.532C15.1065 17.0881 15.356 16.4859 15.356 15.858L15.356 5.91483C15.356 4.91022 14.9569 3.94676 14.2465 3.2364C13.5362 2.52603 12.5727 2.12695 11.5681 2.12695C10.5635 2.12695 9.60002 2.52603 8.88966 3.2364C8.17929 3.94676 7.78021 4.91022 7.78021 5.91483L7.78021 17.752C7.78021 19.1333 8.32895 20.458 9.3057 21.4348C10.2824 22.4116 11.6072 22.9603 12.9885 22.9603C14.3699 22.9603 15.6946 22.4116 16.6714 21.4348C17.6481 20.458 18.1969 19.1333 18.1969 17.752L18.1969 6.8618L16.7764 6.8618Z" fill="rgb(0,84,117)" fill-rule="nonzero" />
</svg>
