<svg viewBox="0 0 24 24" xmlns="http://www.w3.org/2000/svg" xmlns:xlink="http://www.w3.org/1999/xlink" width="24.000000" height="24.000000" fill="none">
	<rect id="icon / v-drag" width="24.000000" height="24.000000" x="0.000000" y="0.000000" fill="rgb(255,255,255)" fill-opacity="0" />
	<path id="Эллипс 4(Граница)" d="M12 0C18.6274 0 24 5.37258 24 12C24 18.6274 18.6274 24 12 24C5.37258 24 0 18.6274 0 12C0 5.37258 5.37258 0 12 0ZM12 1.5C11.2002 1.5 10.4201 1.5866 9.65981 1.7598C9.06562 1.89516 8.48348 2.0834 7.91339 2.32453C7.32966 2.57142 6.77689 2.86563 6.25509 3.20714L6.25508 3.20715C5.65411 3.60047 5.09421 4.05655 4.57538 4.57538C4.05656 5.09419 3.6005 5.65408 3.20718 6.25502L3.20716 6.25505C2.86564 6.77687 2.57143 7.32965 2.32453 7.91339C2.08339 8.48351 1.89514 9.06567 1.75978 9.65989C1.5866 10.4202 1.5 11.2002 1.5 12C1.5 12.7998 1.5866 13.5798 1.75978 14.3401L1.75979 14.3401C1.89515 14.9343 2.08339 15.5165 2.32453 16.0866C2.57144 16.6704 2.86567 17.2232 3.20722 17.745L3.20725 17.7451C3.60055 18.346 4.05659 18.9058 4.57538 19.4246C5.09419 19.9434 5.65407 20.3995 6.25502 20.7928L6.25506 20.7928C6.77687 21.1344 7.32965 21.4286 7.91339 21.6755C8.48351 21.9166 9.06567 22.1049 9.65989 22.2402C10.4202 22.4134 11.2002 22.5 12 22.5C12.7998 22.5 13.5798 22.4134 14.3401 22.2402C14.9343 22.1049 15.5165 21.9166 16.0866 21.6755C16.6704 21.4286 17.2232 21.1343 17.7451 20.7928C18.346 20.3995 18.9058 19.9434 19.4246 19.4246C19.9434 18.9058 20.3995 18.346 20.7928 17.7451C21.1343 17.2232 21.4286 16.6704 21.6755 16.0866C21.9166 15.5165 22.1048 14.9344 22.2402 14.3402L22.2402 14.3401L22.2402 14.3401C22.4134 13.5798 22.5 12.7998 22.5 12C22.5 11.2002 22.4134 10.4202 22.2402 9.6599C22.1049 9.06567 21.9166 8.4835 21.6755 7.91339C21.4286 7.32964 21.1344 6.77685 20.7928 6.25503C20.3995 5.65408 19.9434 5.09419 19.4246 4.57538C18.9059 4.05661 18.346 3.60058 17.7451 3.20729L17.7451 3.20723L17.745 3.20721C17.2232 2.86567 16.6704 2.57144 16.0866 2.32453C15.5165 2.08339 14.9343 1.89514 14.3401 1.75979C13.5798 1.5866 12.7998 1.5 12 1.5Z" fill="rgb(0,84,117)" fill-rule="evenodd" />
	<path id="Форма 12(Граница)" d="M12.3503 4.67944L8.68765 7.60957C8.46901 7.78448 8.43465 8.09371 8.60957 8.31235C8.78448 8.53099 9.0937 8.56535 9.31235 8.39044L12.3164 5.98722L15.0012 8.3737C15.2104 8.55973 15.521 8.54146 15.707 8.33218C15.8931 8.12291 15.8748 7.81232 15.6655 7.6263L12.3503 4.67944ZM6 9.5L18.6667 9.5C18.9467 9.5 19.1667 9.72 19.1667 10C19.1667 10.28 18.9467 10.5 18.6667 10.5L6 10.5C5.72 10.5 5.5 10.28 5.5 10C5.5 9.72 5.72 9.5 6 9.5ZM6 11.8333L18.6667 11.8333C18.9467 11.8333 19.1667 12.0533 19.1667 12.3333C19.1667 12.6133 18.9467 12.8333 18.6667 12.8333L6 12.8333C5.72 12.8333 5.5 12.6133 5.5 12.3333C5.5 12.0533 5.72 11.8333 6 11.8333ZM6 14.1667L18.6667 14.1667C18.9467 14.1667 19.1667 14.3867 19.1667 14.6667C19.1667 14.9467 18.9467 15.1667 18.6667 15.1667L6 15.1667C5.72 15.1667 5.5 14.9467 5.5 14.6667C5.5 14.3867 5.72 14.1667 6 14.1667ZM15.6655 17.0404L12.3503 19.9872L8.68765 17.0571C8.46901 16.8822 8.43465 16.573 8.60957 16.3543C8.78448 16.1357 9.0937 16.1013 9.31235 16.2762L12.3164 18.6794L15.0012 16.293C15.2104 16.1069 15.521 16.1252 15.707 16.3345C15.8931 16.5438 15.8748 16.8544 15.6655 17.0404Z" fill="rgb(0,84,117)" fill-rule="evenodd" />
</svg>
