<svg width="30.000000" height="30.000000" viewBox="0 0 30 30" fill="none" xmlns="http://www.w3.org/2000/svg" xmlns:xlink="http://www.w3.org/1999/xlink">
	<desc>
			Created with Pixso.
	</desc>
	<defs>
		<clipPath id="clip159_1599">
			<rect id="exit" rx="0.000000" width="23.000000" height="23.000000" transform="translate(3.500000 3.500000)" fill="white" fill-opacity="0"/>
		</clipPath>
		<clipPath id="clip159_1597">
			<rect id="Frame 16" rx="4.500000" width="29.000000" height="29.000000" transform="translate(0.500000 0.500000)" fill="white" fill-opacity="0"/>
		</clipPath>
	</defs>
	<rect id="Frame 16" rx="4.500000" width="29.000000" height="29.000000" transform="translate(0.500000 0.500000)" fill="#F1F5F9" fill-opacity="1.000000"/>
	<g clip-path="url(#clip159_1597)">
		<rect id="exit" rx="0.000000" width="23.000000" height="23.000000" transform="translate(3.500000 3.500000)" fill="#FFFFFF" fill-opacity="0"/>
		<g clip-path="url(#clip159_1599)">
			<path id="Vector" d="M22 6L8 6C6.89 6 6 6.89 6 8L6 12L8 12L8 8L22 8L22 22L8 22L8 18L6 18L6 22C6 22.53 6.21 23.03 6.58 23.41C6.96 23.78 7.46 24 8 24L22 24C22.53 24 23.03 23.78 23.41 23.41C23.78 23.03 24 22.53 24 22L24 8C24 6.89 23.1 6 22 6ZM13.08 18.58L14.5 20L19.5 15L14.5 10L13.08 11.41L15.66 14L6 14L6 16L15.66 16L13.08 18.58Z" fill="#005475" fill-opacity="1.000000" fill-rule="nonzero"/>
		</g>
	</g>
	<rect id="Frame 16" rx="4.500000" width="29.000000" height="29.000000" transform="translate(0.500000 0.500000)" stroke="#F1F5F9" stroke-opacity="1.000000" stroke-width="1.000000"/>
</svg>
