<svg viewBox="0 0 279.792 279.926" xmlns="http://www.w3.org/2000/svg" xmlns:xlink="http://www.w3.org/1999/xlink" width="150" height="150" fill="none" customFrame="#000000">
	<path id="Vector 1" d="M143.676 279.83C140.721 279.984 141.988 279.907 139.915 279.907C101.272 279.907 66.312 264.25 40.9845 238.923C15.657 213.595 0 178.636 0 139.992C0 107.91 10.9753 77.8629 29.7406 53.8785C47.585 29.8557 76.2511 11.0136 109.522 3.45375L109.522 32.3117C83.8494 40.1402 66.3504 52.6121 51.6911 71.0705C36.7249 90.2196 27.9754 114.281 27.9754 140.03C27.9754 170.922 40.4856 198.898 60.7476 219.16C77.9012 236.313 100.581 247.941 125.908 251.088L125.908 170.001L76.3279 145.364C67.9621 141.22 79.4363 115.701 87.802 119.845L153.884 152.579L153.884 251.049L153.884 267.589C153.884 276.185 151.85 279.408 143.676 279.83ZM132.777 0.307C127.904 0.652375 125.908 5.75625 125.908 9.824L125.908 28.9731L125.908 120.344L153.884 136.039L153.884 28.9731C161.866 29.9709 169.579 31.7745 176.985 34.384C177.062 34.4224 176.947 34.2689 176.947 34.3456L176.947 274.957C186.694 272.194 196.058 268.548 204.922 263.905L204.922 48.9281C204.922 48.8514 204.846 48.8897 204.884 48.9281C209.911 52.5354 214.67 56.5264 219.045 60.9011C239.307 81.1631 251.817 109.138 251.817 140.03C251.817 154.92 248.9 169.464 243.336 182.857C237.541 196.173 237.158 195.751 229.099 207.609L228.984 241.993C228.945 246.559 231.325 245.907 235.047 242.53C243.605 234.778 248.44 228.446 254.158 220.771C261.027 211.523 265.632 201.968 269.124 193.448C276.108 176.602 279.792 158.45 279.792 139.992C279.792 101.348 264.135 66.3887 238.808 41.0612C212.329 14.5825 178.751 0.307001 140.99 0C137.881 0.153501 135.118 0.153501 132.777 0.307Z" fill="rgb(2,85,117)" fill-rule="evenodd" />
</svg>
