<svg viewBox="0 0 350 231" xmlns="http://www.w3.org/2000/svg" xmlns:xlink="http://www.w3.org/1999/xlink" width="350.000000" height="231.000000" fill="none" customFrame="#000000">
	<path id="фрейм_x0020_28" d="M0 231L350 231L350 0L0 0L0 231ZM175.68 150.804C175.68 150.804 175.68 150.804 174.32 150.804C158.05 150.804 143.14 144.025 132.29 133.187C121.45 122.339 114.67 107.431 114.67 89.8045C114.67 76.2468 118.73 64.0489 126.87 53.2108C135 42.3627 147.21 34.2241 162.12 31.5145L162.12 43.7124C151.27 47.7817 143.14 53.2108 136.36 59.9796C130.94 69.478 126.87 78.9663 126.87 89.8045C126.87 103.362 132.29 115.56 140.43 123.699C148.56 131.827 158.05 135.896 168.9 137.256L168.9 103.362L147.21 92.514C144.49 91.1642 148.56 80.3161 152.63 81.6759L181.1 95.2335L181.1 137.256L181.1 145.385C181.1 148.094 179.74 149.454 175.68 150.804ZM171.61 30.1648C172.97 30.1648 174.32 30.1648 175.68 30.1648C191.95 30.1648 205.51 36.9436 217.71 47.7817C228.55 58.6298 235.33 73.5373 235.33 89.8045C235.33 97.943 232.62 106.072 229.91 112.85C228.55 116.92 227.2 120.989 223.13 125.048C221.78 127.768 219.06 130.477 215 134.537C213.64 135.896 212.29 135.896 212.29 134.537L213.64 119.629C216.35 114.21 216.35 114.21 219.06 108.781C221.78 103.362 223.13 96.5833 223.13 89.8045C223.13 77.6066 217.71 65.4087 208.22 55.9203C206.86 54.5606 204.15 53.2108 202.79 50.4913L202.79 144.025C198.73 145.385 194.66 146.745 190.59 148.094L190.59 45.0722C187.88 43.7124 183.81 42.3627 181.1 42.3627L181.1 88.4547L168.9 81.6759L168.9 42.3627L168.9 34.2241C168.9 32.8743 168.9 30.1648 171.61 30.1648ZM61.97 187.118L64.37 187.118L64.37 193.936C63.5 194.656 62.49 195.206 61.34 195.596C60.19 195.976 58.99 196.166 57.74 196.166C55.97 196.166 54.38 195.776 52.96 195.006C51.55 194.226 50.44 193.157 49.63 191.807C48.82 190.447 48.42 188.917 48.42 187.218C48.42 185.518 48.82 183.988 49.63 182.618C50.44 181.249 51.55 180.189 52.98 179.419C54.4 178.649 56.01 178.269 57.79 178.269C59.19 178.269 60.46 178.499 61.6 178.959C62.74 179.409 63.71 180.079 64.51 180.969L62.96 182.518C61.56 181.169 59.87 180.499 57.89 180.499C56.56 180.499 55.36 180.779 54.3 181.359C53.24 181.928 52.41 182.728 51.81 183.758C51.21 184.778 50.91 185.928 50.91 187.218C50.91 188.487 51.21 189.627 51.81 190.657C52.41 191.677 53.24 192.487 54.3 193.067C55.36 193.646 56.55 193.936 57.87 193.936C59.43 193.936 60.8 193.566 61.97 192.817L61.97 187.118ZM77.04 196.166C75.27 196.166 73.68 195.776 72.26 195.006C70.85 194.226 69.74 193.157 68.93 191.787C68.12 190.427 67.72 188.897 67.72 187.218C67.72 185.538 68.12 184.008 68.93 182.638C69.74 181.279 70.85 180.209 72.26 179.429C73.68 178.659 75.27 178.269 77.04 178.269C78.79 178.269 80.37 178.659 81.79 179.429C83.21 180.209 84.31 181.269 85.11 182.628C85.91 183.988 86.31 185.518 86.31 187.218C86.31 188.917 85.91 190.447 85.11 191.807C84.31 193.157 83.21 194.226 81.79 195.006C80.37 195.776 78.79 196.166 77.04 196.166ZM77.04 193.936C78.32 193.936 79.48 193.646 80.5 193.067C81.53 192.487 82.34 191.677 82.93 190.657C83.52 189.627 83.81 188.487 83.81 187.218C83.81 185.948 83.52 184.808 82.93 183.778C82.34 182.748 81.53 181.948 80.5 181.369C79.48 180.789 78.32 180.499 77.04 180.499C75.76 180.499 74.59 180.789 73.55 181.369C72.51 181.948 71.69 182.748 71.1 183.778C70.51 184.808 70.21 185.948 70.21 187.218C70.21 188.487 70.51 189.627 71.1 190.657C71.69 191.677 72.51 192.487 73.55 193.067C74.59 193.646 75.76 193.936 77.04 193.936ZM98.04 196.166C96.27 196.166 94.68 195.776 93.26 195.006C91.85 194.226 90.74 193.157 89.93 191.787C89.12 190.427 88.72 188.897 88.72 187.218C88.72 185.538 89.12 184.008 89.93 182.638C90.74 181.279 91.85 180.209 93.26 179.429C94.68 178.659 96.27 178.269 98.04 178.269C99.79 178.269 101.37 178.659 102.79 179.429C104.21 180.209 105.31 181.269 106.11 182.628C106.91 183.988 107.31 185.518 107.31 187.218C107.31 188.917 106.91 190.447 106.11 191.807C105.31 193.157 104.21 194.226 102.79 195.006C101.37 195.776 99.79 196.166 98.04 196.166ZM98.04 193.936C99.32 193.936 100.48 193.646 101.5 193.067C102.53 192.487 103.34 191.677 103.93 190.657C104.52 189.627 104.81 188.487 104.81 187.218C104.81 185.948 104.52 184.808 103.93 183.778C103.34 182.748 102.53 181.948 101.5 181.369C100.48 180.789 99.32 180.499 98.04 180.499C96.76 180.499 95.59 180.789 94.55 181.369C93.51 181.948 92.69 182.748 92.1 183.778C91.51 184.808 91.21 185.948 91.21 187.218C91.21 188.487 91.51 189.627 92.1 190.657C92.69 191.677 93.51 192.487 94.55 193.067C95.59 193.646 96.76 193.936 98.04 193.936ZM111.14 178.469L118.51 178.469C120.36 178.469 122.01 178.839 123.44 179.569C124.87 180.299 125.99 181.329 126.78 182.658C127.57 183.978 127.97 185.498 127.97 187.218C127.97 188.927 127.57 190.447 126.78 191.777C125.99 193.107 124.87 194.136 123.44 194.866C122.01 195.596 120.36 195.966 118.51 195.966L111.14 195.966L111.14 178.469ZM118.37 193.796C119.78 193.796 121.03 193.516 122.1 192.967C123.18 192.417 124 191.647 124.59 190.657C125.17 189.667 125.46 188.517 125.46 187.218C125.46 185.918 125.17 184.768 124.59 183.778C124 182.788 123.18 182.018 122.1 181.469C121.03 180.919 119.78 180.639 118.37 180.639L113.64 180.639L113.64 193.796L118.37 193.796ZM148.01 195.966L147.99 183.218L141.66 193.836L140.52 193.836L134.19 183.288L134.19 195.966L131.79 195.966L131.79 178.469L133.84 178.469L141.14 190.767L148.34 178.469L150.39 178.469L150.42 195.966L148.01 195.966ZM166.82 191.587L157.51 191.587L155.59 195.966L153.02 195.966L160.94 178.469L163.42 178.469L171.36 195.966L168.74 195.966L166.82 191.587ZM165.94 189.597L162.16 181.019L158.39 189.597L165.94 189.597ZM189.02 178.469L189.02 195.966L186.96 195.966L176.47 182.918L176.47 195.966L173.96 195.966L173.96 178.469L176.01 178.469L186.51 191.517L186.51 178.469L189.02 178.469ZM205.42 191.587L196.11 191.587L194.19 195.966L191.62 195.966L199.54 178.469L202.02 178.469L209.96 195.966L207.34 195.966L205.42 191.587ZM204.54 189.597L200.76 181.019L196.99 189.597L204.54 189.597ZM224.44 187.118L226.84 187.118L226.84 193.936C225.97 194.656 224.96 195.206 223.81 195.596C222.67 195.976 221.47 196.166 220.21 196.166C218.45 196.166 216.86 195.776 215.44 195.006C214.02 194.226 212.91 193.157 212.1 191.807C211.29 190.447 210.89 188.917 210.89 187.218C210.89 185.518 211.29 183.988 212.1 182.618C212.91 181.249 214.03 180.189 215.45 179.419C216.88 178.649 218.48 178.269 220.27 178.269C221.67 178.269 222.94 178.499 224.08 178.959C225.22 179.409 226.19 180.079 226.99 180.969L225.44 182.518C224.04 181.169 222.35 180.499 220.36 180.499C219.03 180.499 217.83 180.779 216.78 181.359C215.72 181.928 214.89 182.728 214.29 183.758C213.69 184.778 213.39 185.928 213.39 187.218C213.39 188.487 213.69 189.627 214.29 190.657C214.89 191.677 215.72 192.487 216.78 193.067C217.83 193.646 219.02 193.936 220.34 193.936C221.91 193.936 223.27 193.566 224.44 192.817L224.44 187.118ZM247.84 195.966L247.81 183.218L241.49 193.836L240.34 193.836L234.01 183.288L234.01 195.966L231.61 195.966L231.61 178.469L233.66 178.469L240.96 190.767L248.17 178.469L250.21 178.469L250.24 195.966L247.84 195.966ZM268.19 193.796L268.19 195.966L255.49 195.966L255.49 178.469L267.84 178.469L267.84 180.639L257.99 180.639L257.99 186.018L266.76 186.018L266.76 188.137L257.99 188.137L257.99 193.796L268.19 193.796ZM287.29 178.469L287.29 195.966L285.24 195.966L274.74 182.918L274.74 195.966L272.24 195.966L272.24 178.469L274.29 178.469L284.79 191.517L284.79 178.469L287.29 178.469ZM296.01 180.639L290.01 180.639L290.01 178.469L304.49 178.469L304.49 180.639L298.49 180.639L298.49 195.966L296.01 195.966L296.01 180.639Z" fill="rgb(0,84,117)" fill-rule="evenodd" />
</svg>
