<svg viewBox="0 0 24 24" xmlns="http://www.w3.org/2000/svg" xmlns:xlink="http://www.w3.org/1999/xlink" width="24.000000" height="24.000000" fill="none" customFrame="#000000">
	<rect id="nuber mark" width="24.000000" height="24.000000" x="0.000000" y="0.000000" fill="rgb(255,255,255)" fill-opacity="0" />
	<g id="Сочетание 4">
		<circle id="Ellipse 1" cx="12" cy="12" r="11.5" stroke="rgb(153,153,153)" stroke-width="1" />
		<path id="1" d="M11.0384 4.50098L14.0022 4.50098L13.4993 13.8613L11.5218 13.8613L11.0384 4.50098ZM12.5179 18.6416C12.0524 18.6416 11.6666 18.4919 11.3606 18.1924C11.0546 17.8896 10.9016 17.5186 10.9016 17.0791C10.9016 16.6396 11.0546 16.2734 11.3606 15.9805C11.6666 15.6875 12.0524 15.541 12.5179 15.541C12.9736 15.541 13.3512 15.6875 13.6507 15.9805C13.9501 16.2734 14.0999 16.6396 14.0999 17.0791C14.0999 17.5186 13.9501 17.8896 13.6507 18.1924C13.3512 18.4919 12.9736 18.6416 12.5179 18.6416Z" fill="rgb(153,153,153)" fill-rule="nonzero" />
	</g>
</svg>
