<svg viewBox="0 0 36 36" xmlns="http://www.w3.org/2000/svg" xmlns:xlink="http://www.w3.org/1999/xlink" width="36.000000" height="36.000000" fill="none">
	<rect id="Свойство 1=3" width="36.000000" height="36.000000" x="0.000000" y="0.000000" />
	<circle id="Эллипс 16" cx="18" cy="18" r="17" stroke="rgb(0,84,117)" stroke-width="2" />
	<path id="Слияние" d="M13.325 12.9591C12.875 12.5364 13.1 11.6909 13.775 11.3739C14.45 10.9511 15.6875 11.4795 15.6875 11.4795C15.6875 11.4795 16.1375 10.7398 17.15 10.7398C18.5 10.7398 18.95 11.3739 18.95 11.3739C18.95 11.3739 19.5125 10 21.0875 10C22.775 10 23.1125 11.1625 23.1125 11.1625C23.1125 11.1625 23.45 10.5284 24.575 10.6341C25.8125 10.7398 25.5875 11.7966 25.5875 11.7966C25.5875 11.7966 26.825 11.6909 26.825 12.642C26.825 13.3818 25.7 13.3818 25.7 13.3818C25.7 13.3818 26.15 14.1216 24.9125 14.5443C23.225 15.1784 22.775 14.1216 22.775 14.1216C22.775 14.1216 22.1 15.1784 20.1875 14.967C18.5 14.7557 18.275 13.4875 18.275 13.4875C18.275 13.4875 17.0375 14.1216 16.1375 13.3818C14.7875 12.325 13.8875 12.008 13.325 12.9591ZM22.5 20.6705L22.5 22.8898L27 20.6705L27 27.0114L9 27.0114L9 20.6705L11.7 20.6705L12.375 13.2727L14.625 13.2727L15.3 20.6705L18 20.6705L18 22.8898L22.5 20.6705ZM11.25 24.8977L15.75 24.8977L15.75 22.7841L11.25 22.7841L11.25 24.8977Z" fill="rgb(0,84,117)" fill-rule="evenodd" />
</svg>
