<svg viewBox="0 0 36 36" xmlns="http://www.w3.org/2000/svg" xmlns:xlink="http://www.w3.org/1999/xlink" width="36.000000" height="36.000000" fill="none">
	<rect id="тип=личное" width="36.000000" height="36.000000" x="0.000000" y="0.000000" />
	<circle id="Эллипс 4" cx="18" cy="18" r="17" stroke="rgb(0,84,117)" stroke-width="2" />
	<rect id="Прямоугольник 1" width="24.000000" height="14.769231" x="6.000000" y="11.000000" rx="2.000000" stroke="rgb(0,84,117)" stroke-width="2" />
	<path id="Линия 4" d="M20 20L27 20" stroke="rgb(0,84,117)" stroke-width="2" />
	<path id="Линия 5" d="M20 23L27 23" stroke="rgb(0,84,117)" stroke-width="2" />
	<rect id="Прямоугольник 2" width="4.000000" height="3.000000" x="23.000000" y="13.000000" fill="rgb(0,84,117)" />
	<path id="" d="M17.7446 13.2007L17.7446 23L15.9536 23L15.9536 14.7388L12.0879 14.7388L12.0024 17.1895C11.9569 18.5612 11.8452 19.6743 11.6675 20.5288C11.4897 21.3833 11.2049 22.0327 10.813 22.4771C10.4211 22.9191 9.87988 23.1401 9.18945 23.1401C8.94792 23.1401 8.61637 23.0934 8.19482 23L8.32129 21.4175C8.44206 21.4562 8.58219 21.4756 8.7417 21.4756C9.31136 21.4756 9.71468 21.1372 9.95166 20.4604C10.1909 19.7837 10.3379 18.7173 10.3926 17.2612L10.5327 13.2007L17.7446 13.2007Z" fill="rgb(0,84,117)" fill-rule="nonzero" />
</svg>
