<svg viewBox="0 0 24 24" xmlns="http://www.w3.org/2000/svg" xmlns:xlink="http://www.w3.org/1999/xlink" width="24.000000" height="24.000000" fill="none">
	<defs>
		<clipPath id="clipPath_0">
			<rect width="20.000000" height="20.000000" x="2.000000" y="2.000000" fill="rgb(255,255,255)" />
		</clipPath>
	</defs>
	<rect id="Icon-phone" width="24.000000" height="24.000000" x="0.000000" y="0.000000" fill="rgb(255,255,255)" fill-opacity="0" />
	<g id="Icon-phone" customFrame="url(#clipPath_0)">
		<rect id="Icon-phone" width="20.000000" height="20.000000" x="2.000000" y="2.000000" fill="rgb(255,255,255)" fill-opacity="0" />
		<path id="phone" d="M17.0346 14.2149L17.0948 14.3253C17.2444 14.6111 17.6903 15.4535 17.1084 16.2071C16.8593 16.5427 16.3241 17.1599 15.6271 17.4457L15.4816 17.4998L15.4214 17.502C15.263 17.5301 15.0749 17.5367 14.9362 17.5367C14.3968 17.5367 11.5906 17.4089 9.17412 14.8797C6.62298 12.214 6.42607 8.81217 6.7184 8.1452C7.03238 7.46745 7.67524 6.95422 8.02848 6.71171C8.17329 6.61858 8.31201 6.55797 8.46156 6.51467C8.59555 6.47998 8.71262 6.46484 8.82968 6.46484C9.29796 6.46484 9.68232 6.69264 9.89209 6.81685L9.89751 6.81998L10.0078 6.8871C10.7677 7.35482 11.0668 9.71729 11.0668 9.73894C11.0452 10.237 10.7116 10.6073 10.2352 11.075C10.5059 11.5926 11.008 12.2552 11.37 12.6255C11.7226 12.9871 12.312 13.483 12.8574 13.8013C13.2796 13.4093 13.5848 13.1538 13.9509 13.0694L14.185 13.0369L14.2365 13.0391C14.2581 13.0391 16.6056 13.4375 17.0346 14.2149ZM15.1872 16.2677C15.5188 16.1226 15.8822 15.748 16.1096 15.4449C16.1766 15.3561 16.142 15.211 15.9905 14.9252L15.9668 14.8819C15.6832 14.6978 14.5985 14.3773 14.2168 14.3037C14.1011 14.3636 13.802 14.6426 13.5848 14.8449L13.5544 14.8732C13.2776 15.1395 12.8445 15.211 12.4913 15.0356C11.7591 14.6631 10.9518 14.0005 10.4734 13.5068C9.98615 13.0088 9.29931 12.0906 8.99209 11.3782C8.84931 11.0296 8.92713 10.6311 9.18495 10.3539L9.2066 10.3301L9.24247 10.2948C9.43126 10.1087 9.72901 9.81482 9.80615 9.68485C9.74796 9.3037 9.47728 8.21883 9.30134 7.9265L9.24991 7.89402C9.13284 7.82475 8.91427 7.69482 8.79517 7.72514C8.76269 7.73597 8.73224 7.75327 8.72141 7.75978C8.34246 8.02179 8.02645 8.3466 7.88299 8.62159C7.82073 9.03302 7.91547 11.7463 10.0836 14.0113C12.1468 16.1703 14.4875 16.2807 14.9362 16.2807C15.0702 16.2807 15.1547 16.272 15.1872 16.2677Z" fill="rgb(107,108,126)" fill-rule="evenodd" />
		<path id="Vector" d="M12 3.25C16.875 3.25 20.75 7.125 20.75 12C20.75 16.875 16.875 20.75 12 20.75C7.125 20.75 3.25 16.875 3.25 12C3.25 7.125 7.125 3.25 12 3.25ZM12 2C6.5 2 2 6.5 2 12C2 17.5 6.5 22 12 22C17.5 22 22 17.5 22 12C22 6.5 17.5 2 12 2Z" fill="rgb(28,46,69)" fill-opacity="0.600000024" fill-rule="evenodd" />
	</g>
</svg>
