<svg viewBox="0 0 36 36" xmlns="http://www.w3.org/2000/svg" xmlns:xlink="http://www.w3.org/1999/xlink" width="36.000000" height="36.000000" fill="none">
	<rect id="type=policy" width="36.000000" height="36.000000" x="0.000000" y="0.000000" />
	<circle id="Эллипс 16" cx="18" cy="18" r="17" stroke="rgb(0,84,117)" stroke-width="2" />
	<path id="Слияние" d="M25 12L26 12L26 21L22 26L10 26L10 17L11 15.75L11 14L12.4 14L13 13.25L13 12L15 12L15 10L25 10L25 12ZM23 15.75L24 14.5L24 11L16 11L16 12L23 12L23 15.75ZM21 17L22 17L22 13L14 13L14 14L21 14L21 17ZM20 15L12 15L12 17L20 17L20 15ZM11 18L11 25L21 25L21 18L11 18ZM18 21L18 19L14 19L14 21L18 21Z" fill="rgb(0,84,117)" fill-rule="evenodd" />
</svg>
