<svg viewBox="0 0 36 36" xmlns="http://www.w3.org/2000/svg" xmlns:xlink="http://www.w3.org/1999/xlink" width="36.000000" height="36.000000" fill="none">
	<rect id="type=post" width="36.000000" height="36.000000" x="0.000000" y="0.000000" />
	<circle id="Эллипс 16" cx="18" cy="18" r="17" stroke="rgb(0,84,117)" stroke-width="2" />
	<path id="Слияние" d="M26 12L10 12L10 24L26 24L26 12ZM11 13L25 13L25 23L11 23L11 13ZM15.4 17L15 17L15 16.9C15.6 16.7 16 16.1 16 15.5C16 14.7 15.3 14 14.5 14C13.7 14 13 14.7 13 15.5C13 16.2 13.4 16.7 14 16.9L14 17L13.6 17C12.7 17 12 17.7 12 18.6L12 21L17 21L17 18.6C17 17.7 16.3 17 15.4 17ZM24 15L18 15L18 16L24 16L24 15ZM24 17L18 17L18 18L24 18L24 17ZM18 19L21 19L21 20L18 20L18 19Z" fill="rgb(0,84,117)" fill-rule="evenodd" />
</svg>
