<svg viewBox="0 0 24 24" xmlns="http://www.w3.org/2000/svg" xmlns:xlink="http://www.w3.org/1999/xlink" width="24.000000" height="24.000000" fill="none">
	<rect id="icon / search" width="24.000000" height="24.000000" x="0.000000" y="0.000000" fill="rgb(255,255,255)" fill-opacity="0" />
	<path id="Vector" d="M0 0L24 0L24 24L0 24L0 0Z" fill-rule="nonzero" />
	<path id="Vector" d="M15.5001 14L14.7101 14L14.4301 13.73C15.6301 12.33 16.2501 10.42 15.9101 8.39002C15.4401 5.61002 13.1201 3.39002 10.3201 3.05002C6.09014 2.53002 2.53014 6.09001 3.05014 10.32C3.39014 13.12 5.61014 15.44 8.39014 15.91C10.4201 16.25 12.3301 15.63 13.7301 14.43L14.0001 14.71L14.0001 15.5L18.2501 19.75C18.6601 20.16 19.3301 20.16 19.7401 19.75C20.1501 19.34 20.1501 18.67 19.7401 18.26L15.5001 14ZM9.50014 14C7.01014 14 5.00014 11.99 5.00014 9.50002C5.00014 7.01002 7.01014 5.00002 9.50014 5.00002C11.9901 5.00002 14.0001 7.01002 14.0001 9.50002C14.0001 11.99 11.9901 14 9.50014 14Z" fill="rgb(0,84,117)" fill-rule="nonzero" />
</svg>
