<svg viewBox="0 0 48 48" xmlns="http://www.w3.org/2000/svg" xmlns:xlink="http://www.w3.org/1999/xlink" width="48.000000" height="48.000000" fill="none">
	<rect id="sections" width="48.000000" height="48.000000" x="0.000000" y="0.000000" />
	<circle id="Эллипс 16" cx="24" cy="24" r="23" stroke="rgb(153,153,153)" stroke-width="2" />
	<path id="Слияние" d="M29.3334 13.3333L20 13.3333L20 21.3333L20.9334 21.3333L21.2 22.2666L21.3334 22.3999L21.3334 14.6666L28 14.6666L28 19.9999L33.3334 19.9999L33.3334 31.9999L25.3334 31.9999L25.7334 32.6666L25.0667 33.3333L34.6667 33.3333L34.6667 18.6666L29.3334 13.3333ZM29.3334 18.6666L29.3334 14.6666L33.3334 18.6666L29.3334 18.6666ZM25.3334 29.3333L23.8667 29.8666C23.7334 30.2666 23.6 30.6666 23.3334 30.9333L24 32.3999L23.0667 33.3333L21.7334 32.6666C21.3334 32.9333 20.9334 33.0666 20.5334 33.1999L20 34.6666L18.6667 34.6666L18.2667 33.1999C17.8667 33.0666 17.4667 32.9333 17.0667 32.6666L15.6 33.3333L14.6667 32.3999L15.3334 31.0666C15.0667 30.6666 14.9334 30.2666 14.8 29.8666L13.3334 29.3333L13.3334 27.9999L14.8 27.5999C14.9334 27.1999 15.0667 26.7999 15.3334 26.3999L14.6667 24.9333L15.6 23.9999L16.9334 24.6666C17.3334 24.3999 17.7334 24.2666 18.1334 24.1333L18.6667 22.6666L20 22.6666L20.5334 24.1333C20.9334 24.2666 21.3334 24.3999 21.7334 24.6666L23.0667 23.9999L24 24.9333L23.3334 26.2666C23.6 26.6666 23.7334 27.0666 23.8667 27.4666L25.3334 27.9999L25.3334 29.3333ZM16.6667 28.6666C16.6667 30.1333 17.8667 31.3333 19.3334 31.3333C20.8 31.3333 22 30.1333 22 28.6666C22 27.1999 20.8 25.9999 19.3334 25.9999C17.8667 25.9999 16.6667 27.1999 16.6667 28.6666ZM20.6667 28.6666C20.6667 29.4026 20.0694 29.9999 19.3334 29.9999C18.5974 29.9999 18 29.4026 18 28.6666C18 27.9306 18.5974 27.3333 19.3334 27.3333C20.0694 27.3333 20.6667 27.9306 20.6667 28.6666Z" fill="rgb(153,153,153)" fill-rule="evenodd" />
</svg>
