<svg viewBox="0 0 36 36" xmlns="http://www.w3.org/2000/svg" xmlns:xlink="http://www.w3.org/1999/xlink" width="36.000000" height="36.000000" fill="none">
	<rect id="тип=заявка" width="36.000000" height="36.000000" x="0.000000" y="0.000000" />
	<circle id="Эллипс 4" cx="18" cy="18" r="17" stroke="rgb(0,84,117)" stroke-width="2" />
	<rect id="Прямоугольник 1" width="24.000000" height="14.769231" x="6.000000" y="11.000000" rx="2.000000" stroke="rgb(0,84,117)" stroke-width="2" />
	<path id="Линия 4" d="M20 20L27 20" stroke="rgb(0,84,117)" stroke-width="2" />
	<path id="Линия 5" d="M20 23L27 23" stroke="rgb(0,84,117)" stroke-width="2" />
	<rect id="Прямоугольник 2" width="4.000000" height="3.000000" x="23.000000" y="13.000000" fill="rgb(0,84,117)" />
	<path id="" d="M14.5249 17.8901C15.1128 18.077 15.5719 18.3778 15.9023 18.7925C16.235 19.2072 16.4014 19.6948 16.4014 20.2554C16.4014 20.8433 16.21 21.3548 15.8271 21.79C15.4443 22.223 14.9328 22.5568 14.2925 22.7915C13.6545 23.0239 12.9572 23.1401 12.2007 23.1401C11.5467 23.1401 10.8905 23.049 10.2319 22.8667C9.57568 22.6844 8.96729 22.411 8.40674 22.0464L8.99463 20.7168C9.42301 21.0062 9.89811 21.2284 10.4199 21.3833C10.944 21.536 11.4624 21.6123 11.9751 21.6123C12.7134 21.6123 13.3275 21.4688 13.8174 21.1816C14.3073 20.8923 14.5522 20.4946 14.5522 19.9888C14.5522 19.5604 14.3745 19.2345 14.019 19.0112C13.6659 18.7856 13.1759 18.6729 12.5493 18.6729L10.2695 18.6729L10.2695 17.2476L12.4092 17.2476C12.9515 17.2476 13.3765 17.1359 13.6841 16.9126C13.9917 16.687 14.1455 16.3828 14.1455 16C14.1455 15.542 13.9382 15.1877 13.5234 14.937C13.1087 14.6841 12.5789 14.5576 11.9341 14.5576C11.4943 14.5576 11.0409 14.6214 10.5737 14.749C10.1089 14.8743 9.67139 15.0578 9.26123 15.2993L8.68701 13.8296C9.19059 13.5584 9.72493 13.3556 10.29 13.2212C10.8551 13.0868 11.4168 13.0195 11.9751 13.0195C12.7043 13.0195 13.3742 13.1312 13.9849 13.3545C14.5955 13.5778 15.0832 13.8979 15.4478 14.3149C15.8123 14.7297 15.9946 15.2161 15.9946 15.7744C15.9946 16.2598 15.8636 16.6847 15.6016 17.0493C15.3395 17.4139 14.9806 17.6942 14.5249 17.8901Z" fill="rgb(0,84,117)" fill-rule="nonzero" />
</svg>
