<svg viewBox="0 0 48 48" xmlns="http://www.w3.org/2000/svg" xmlns:xlink="http://www.w3.org/1999/xlink" width="48.000000" height="48.000000" fill="none">
	<rect id="sections" width="48.000000" height="48.000000" x="0.000000" y="0.000000" />
	<circle id="Эллипс 16" cx="24" cy="24" r="23" stroke="rgb(153,153,153)" stroke-width="2" />
	<path id="Vector" d="M32.6667 29.3333L32.6667 23.3333L24.6667 23.3333L24.6667 18.6666L26.6667 18.6666L26.6667 13.3333L21.3334 13.3333L21.3334 18.6666L23.3334 18.6666L23.3334 23.3333L15.3334 23.3333L15.3334 29.3333L13.3334 29.3333L13.3334 34.6666L18.6667 34.6666L18.6667 29.3333L16.6667 29.3333L16.6667 24.6666L23.3334 24.6666L23.3334 29.3333L21.3334 29.3333L21.3334 34.6666L26.6667 34.6666L26.6667 29.3333L24.6667 29.3333L24.6667 24.6666L31.3334 24.6666L31.3334 29.3333L29.3334 29.3333L29.3334 34.6666L34.6667 34.6666L34.6667 29.3333L32.6667 29.3333Z" fill="rgb(153,153,153)" fill-rule="evenodd" />
</svg>
