<svg viewBox="0 0 48 48" xmlns="http://www.w3.org/2000/svg" xmlns:xlink="http://www.w3.org/1999/xlink" width="48.000000" height="48.000000" fill="none" customFrame="#000000">
	<rect id="statGraph" width="48.000000" height="48.000000" x="0.000000" y="0.000000" fill="rgb(255,255,255)" fill-opacity="0" />
	<path id="Стрелка 2" d="M0 -1L25.648 -1L25.648 1L0 1L0 -1ZM24.2338 0L19.284 -4.94975C18.8881 -5.34573 18.8881 -5.96798 19.284 -6.36396C19.68 -6.75994 20.3023 -6.75994 20.6983 -6.36396L26.3551 -0.707108C26.7511 -0.311128 26.7511 0.311128 26.3551 0.707108L20.6983 6.36396C20.3023 6.75994 19.68 6.75994 19.284 6.36396C18.8881 5.96798 18.8881 5.34573 19.284 4.94975L24.2338 0Z" fill="rgb(0,84,117)" fill-rule="nonzero" transform="matrix(0.883123,-0.469142,0.469142,0.883123,12.0164,30.6992)" />
	<circle id="Эллипс 26" cx="24" cy="24" r="23" stroke="rgb(0,84,117)" stroke-width="2" />
</svg>
