<svg viewBox="0 0 36 36" xmlns="http://www.w3.org/2000/svg" xmlns:xlink="http://www.w3.org/1999/xlink" width="36.000000" height="36.000000" fill="none">
	<rect id="type=stat" width="36.000000" height="36.000000" x="0.000000" y="0.000000" />
	<circle id="Эллипс 16" cx="18" cy="18" r="17" stroke="rgb(0,84,117)" stroke-width="2" />
	<path id="Vector" d="M10 26L26 26L26 10L25 10L25 12.6L21 16L21 10L20 10L20 16.4L16 15.5L16 10L15 10L15 15.7L11 18.6L11 10L10 10L10 26ZM15 24L11 24L11 22.3L15 19.4L15 24ZM20 24L16 24L16 18.7L16.1 18.6L20 19.5L20 24ZM25 24L21 24L21 19.7L21.1 19.7L25 16.5L25 24Z" fill="rgb(0,84,117)" fill-rule="evenodd" />
</svg>
