<svg viewBox="0 0 48 48" xmlns="http://www.w3.org/2000/svg" xmlns:xlink="http://www.w3.org/1999/xlink" width="48.000000" height="48.000000" fill="none">
	<rect id="sections" width="48.000000" height="48.000000" x="0.000000" y="0.000000" />
	<circle id="Эллипс 16" cx="24" cy="24" r="23" stroke="rgb(153,153,153)" stroke-width="2" />
	<path id="Слияние" d="M17.7667 17.2789C17.1667 16.7153 17.4667 15.588 18.3667 15.1653C19.2667 14.6017 20.9167 15.3062 20.9167 15.3062C20.9167 15.3062 21.5167 14.3199 22.8667 14.3199C24.6667 14.3199 25.2667 15.1653 25.2667 15.1653C25.2667 15.1653 26.0167 13.3335 28.1167 13.3335C30.3667 13.3335 30.8167 14.8835 30.8167 14.8835C30.8167 14.8835 31.2667 14.038 32.7667 14.179C34.4167 14.3199 34.1167 15.729 34.1167 15.729C34.1167 15.729 35.7667 15.588 35.7667 16.8562C35.7667 17.8426 34.2667 17.8426 34.2667 17.8426C34.2667 17.8426 34.3896 18.0445 34.3713 18.3178C34.6228 18.834 34.764 19.4139 34.764 20.0268C34.764 20.6335 34.6254 21.2068 34.3894 21.6962L34.3094 21.8428L34.176 21.9362C34.136 21.9628 31.0427 24.1762 28.2374 26.6775C28.832 26.9455 29.4694 27.1375 30.176 27.2428L30.1374 27.2415C30.42 27.2615 30.7054 27.2708 30.9934 27.2708C32.316 27.2708 33.5894 27.0602 34.696 26.6962L32.0294 29.0028L33.2947 30.6908C31.8454 30.5575 30.4467 30.2455 29.1934 29.7948C28.5254 29.4868 27.9054 29.0908 27.364 28.6295C27.8614 29.1215 28.2814 29.6935 28.584 30.2482C29.0387 31.6482 29.308 33.1308 29.3627 34.6962L27.5894 33.3628L25.3427 36.0868C25.7254 35.1255 25.936 34.0762 25.936 32.9788C25.936 32.6442 25.9174 32.3148 25.8747 31.9828C25.7174 31.2202 25.44 30.5015 25.0827 29.8828C22.496 32.6828 20.0694 35.7495 19.7427 36.1602C19.2667 36.8868 18.4454 37.3668 17.5107 37.3668C17.4587 37.3668 17.4067 37.3655 17.372 37.3628C17.3014 37.3668 17.2294 37.3695 17.156 37.3695C16.0787 37.3695 15.1054 36.9162 14.4294 36.2095C13.7387 35.2242 13.3334 34.0242 13.3334 32.7308C13.3334 32.2362 13.3934 31.7548 13.496 31.3362L13.496 31.0295L14.0214 30.6988C16.8854 28.8362 19.5974 26.7602 22.0454 24.5762C23.4932 23.0663 24.8766 21.4941 26.2275 19.8116C24.6029 19.3145 24.3667 17.9835 24.3667 17.9835C24.3667 17.9835 22.7167 18.8289 21.5167 17.8426C19.7167 16.4335 18.5167 16.0108 17.7667 17.2789ZM27.7751 19.9896C27.0264 20.9449 26.1178 22.0618 25.1654 23.1375C25.2534 23.1268 25.3427 23.1215 25.4334 23.1215C25.9614 23.1215 26.4454 23.3148 26.8187 23.6335C27.3067 24.0642 27.636 24.6695 27.7094 25.3642C30.1094 23.2442 32.5894 21.3642 33.2374 20.9548C33.3454 20.6695 33.4054 20.3602 33.4054 20.0375C33.4054 19.8022 33.3738 19.5743 33.3146 19.3577C33.2829 19.3695 33.2503 19.3811 33.2167 19.3926C30.9667 20.238 30.3667 18.8289 30.3667 18.8289C30.3667 18.8289 29.6723 19.9162 27.7751 19.9896ZM17.7894 30.3975C18.6574 30.6922 19.3827 31.2962 19.8427 32.0962L19.82 32.0788C20.06 32.4842 20.224 32.9375 20.296 33.4428C21.296 32.1495 22.776 30.4028 24.296 28.7682C24.2974 28.7268 24.2987 28.6855 24.2987 28.6428C24.2987 28.0162 24.0547 27.4482 23.6587 27.0308C23.2334 26.6535 22.6814 26.4148 22.1507 26.3202C20.5214 27.7188 18.8187 29.0322 16.8334 30.3895C16.9134 30.3802 16.9934 30.3748 17.076 30.3748C17.1587 30.3748 17.2387 30.3802 17.3 30.3895C17.3774 30.3815 17.456 30.3762 17.536 30.3762C17.616 30.3762 17.6947 30.3815 17.7894 30.3975ZM17.5347 36.0402C18.0307 36.0402 18.4627 35.7708 18.696 35.3628L18.688 35.3815C18.868 34.9815 18.968 34.5362 18.968 34.0682C18.968 33.7348 18.9174 33.4135 18.8294 33.1348L16.5627 35.0015L16.0907 34.4148C15.6334 33.7655 15.364 32.9722 15.364 32.1162C15.364 32.0095 15.368 31.9055 15.3774 31.8042C15.424 31.5682 15.5174 31.3495 15.6427 31.1628L14.7014 31.7722C14.6347 32.0855 14.5987 32.4108 14.5987 32.7455C14.5987 33.7002 14.8894 34.5882 15.376 35.3082C15.8254 35.7602 16.4467 36.0388 17.1334 36.0388C17.2147 36.0388 17.2947 36.0362 17.356 36.0282C17.4147 36.0362 17.4734 36.0402 17.5347 36.0402ZM17.312 31.6668C17.1814 31.6668 17.06 31.7082 16.9627 31.7762L16.9614 31.7775C16.8627 31.8295 16.7867 31.9188 16.7507 32.0215C16.7427 32.0882 16.7387 32.1562 16.7387 32.2255C16.7387 32.4988 16.8014 32.7562 16.9094 32.9762L18.0707 32.0175C17.9014 31.8588 17.6947 31.7388 17.456 31.6695L17.3654 31.6695C17.348 31.6682 17.3307 31.6668 17.312 31.6668Z" fill="rgb(153,153,153)" fill-rule="evenodd" />
</svg>
