<svg viewBox="0 0 36 36" xmlns="http://www.w3.org/2000/svg" xmlns:xlink="http://www.w3.org/1999/xlink" width="36.000000" height="36.000000" fill="none">
	<rect id="Свойство 1=1" width="36.000000" height="36.000000" x="0.000000" y="0.000000" />
	<circle id="Эллипс 16" cx="18" cy="18" r="17" stroke="rgb(0,84,117)" stroke-width="2" />
	<path id="Слияние" d="M18.5359 24.778L16.56 22.9003L14.7191 21.1576L17.1736 20.8017L19.935 20.409L20.2909 19.7094L20.2664 19.7094C19.6748 19.7094 19.1815 19.2921 19.0649 18.735C19.0643 18.3662 19.2968 18.2352 19.6249 18.0505C19.9705 17.8559 20.422 17.6016 20.8186 16.9468C20.9168 16.9223 24.2795 8 17.4068 8C10.5341 8 13.8968 16.9223 13.8968 16.9223C14.2879 17.543 14.7354 17.8027 15.0807 18.003C15.4181 18.1988 15.6579 18.3379 15.6518 18.7018C15.6395 19.4382 14.7436 19.6836 13.8968 19.7695C13.6862 19.7936 13.4794 19.8067 13.276 19.8197C12.1282 19.8928 11.0857 19.9592 10.0432 21.9296C9.30682 23.2673 9 27.6364 9 27.6364L18.0327 27.6364L18.0327 27.4277L18.5359 24.778ZM25.1223 26.9368L22.0909 25.3782L19.0595 26.9368L19.6364 23.6355L17.1818 21.3036L20.5691 20.825L22.0909 17.8182L23.6127 20.825L27 21.3036L24.5455 23.6355L25.1223 26.9368ZM22.7782 26.99L22.4345 26.8182L22.0909 26.99L22.7782 26.99Z" fill="rgb(0,84,117)" fill-rule="evenodd" />
</svg>
