<svg viewBox="0 0 48 48" xmlns="http://www.w3.org/2000/svg" xmlns:xlink="http://www.w3.org/1999/xlink" width="48.000000" height="48.000000" fill="none">
	<rect id="sections" width="48.000000" height="48.000000" x="0.000000" y="0.000000" />
	<circle id="Эллипс 16" cx="24" cy="24" r="23" stroke="rgb(0,84,117)" stroke-width="2" />
	<path id="Vector" d="M18.6 16.4L15.4 16.4L15.4 19.6L18.6 19.6L18.6 16.4ZM16 17L16 19L18 19L18 18.4L18 17.6L18 17L16 17ZM24 17.4L20 17.4L20 18.6L24 18.6L24 17.4ZM32 17.4L25 17.4L25 18.6L32 18.6L32 17.4ZM15.4 20.4L15.4 23.6L18.6 23.6L18.6 20.4L15.4 20.4ZM16 21.6L16 21L18 21L18 23L16 23L16 21.6ZM27 21.4L20 21.4L20 22.6L27 22.6L27 21.4ZM32 21.4L28 21.4L28 22.6L32 22.6L32 21.4ZM18.6 27.6L18.6 24.4L15.4 24.4L15.4 27.6L18.6 27.6ZM18 25L16 25L16 27L18 27L18 25ZM25 25.4L20 25.4L20 26.6L25 26.6L25 25.4ZM32 25.4L26 25.4L26 26.6L32 26.6L32 25.4ZM18.6 31.6L18.6 28.4L15.4 28.4L15.4 31.6L18.6 31.6ZM18 29.6L18 29L16 29L16 31L18 31L18 29.6ZM23 29.4L20 29.4L20 30.6L23 30.6L23 29.4ZM27 29.4L24 29.4L24 30.6L27 30.6L27 29.4ZM32 29.4L28 29.4L28 30.6L32 30.6L32 29.4Z" fill="rgb(0,84,117)" fill-rule="evenodd" />
</svg>
