<svg viewBox="0 0 690 108" xmlns="http://www.w3.org/2000/svg" xmlns:xlink="http://www.w3.org/1999/xlink" width="690.000000" height="108.000000" fill="none" clip-path="url(#clipPath_0)" customFrame="url(#clipPath_0)">
	<defs>
		<clipPath id="clipPath_0">
			<rect width="690.000000" height="108.000000" x="0.000000" y="0.000000" rx="30.000000" fill="rgb(255,255,255)" />
		</clipPath>
		<clipPath id="clipPath_1">
			<rect width="43.000000" height="35.000000" x="11.000000" y="11.000000" fill="rgb(255,255,255)" />
		</clipPath>
		<clipPath id="clipPath_2">
			<rect width="48.000000" height="52.000000" x="632.000000" y="55.000000" rx="10.000000" fill="rgb(255,255,255)" />
		</clipPath>
		<clipPath id="clipPath_3">
			<rect width="24.000000" height="24.000000" x="644.000000" y="69.000000" fill="rgb(255,255,255)" />
		</clipPath>
		<clipPath id="clipPath_4">
			<rect width="85.692078" height="52.000000" x="560.569214" y="55.000000" fill="rgb(255,255,255)" />
		</clipPath>
		<clipPath id="clipPath_5">
			<rect width="44.000000" height="52.000000" x="564.569214" y="55.000000" rx="10.000000" fill="rgb(255,255,255)" />
		</clipPath>
		<clipPath id="clipPath_6">
			<rect width="28.000000" height="28.000000" x="572.569214" y="67.000000" fill="rgb(255,255,255)" />
		</clipPath>
		<clipPath id="clipPath_7">
			<rect width="44.000000" height="52.000000" x="608.569214" y="55.000000" rx="10.000000" fill="rgb(255,255,255)" />
		</clipPath>
		<clipPath id="clipPath_8">
			<rect width="28.000000" height="28.000000" x="616.569214" y="67.000000" fill="rgb(255,255,255)" />
		</clipPath>
	</defs>
	<rect id="фрейм 40" width="690.000000" height="108.000000" x="0.000000" y="0.000000" rx="30.000000" fill="rgb(240.125,240.125,240.125)" />
	<path id="" d="M46.1328 22.8008L46.1328 34L45.3203 34L45.3203 28.6719L37.832 28.6719L37.832 34L37.0156 34L37.0156 22.8008L37.832 22.8008L37.832 27.9531L45.3203 27.9531L45.3203 22.8008L46.1328 22.8008ZM52.6481 25.5859C53.6819 25.5859 54.4762 25.8503 55.0309 26.3789C55.5856 26.9049 55.8629 27.6797 55.8629 28.7031L55.8629 34L55.0973 34L55.0973 32.5117C54.8291 33.0013 54.4385 33.3828 53.9254 33.6562C53.415 33.9271 52.803 34.0625 52.0895 34.0625C51.1598 34.0625 50.4254 33.8451 49.8864 33.4102C49.3499 32.9727 49.0817 32.3958 49.0817 31.6797C49.0817 30.987 49.3291 30.4245 49.8239 29.9922C50.3213 29.5599 51.1129 29.3438 52.1989 29.3438L55.0661 29.3438L55.0661 28.6719C55.0661 27.8932 54.8551 27.3021 54.4333 26.8984C54.0114 26.4922 53.3955 26.2891 52.5856 26.2891C52.0309 26.2891 51.4997 26.3854 50.9918 26.5781C50.4866 26.7682 50.0569 27.0234 49.7028 27.3438L49.3043 26.7695C49.721 26.3945 50.2223 26.1042 50.8083 25.8984C51.3942 25.6901 52.0075 25.5859 52.6481 25.5859ZM52.1989 33.4062C52.8942 33.4062 53.484 33.2474 53.9684 32.9297C54.4528 32.6094 54.8187 32.1445 55.0661 31.5352L55.0661 29.9688L52.2145 29.9688C51.3942 29.9688 50.7991 30.1185 50.4293 30.418C50.0622 30.7148 49.8786 31.125 49.8786 31.6484C49.8786 32.1927 50.0817 32.6224 50.4879 32.9375C50.8942 33.25 51.4645 33.4062 52.1989 33.4062ZM66.4074 25.6484L66.4074 34L65.6067 34L65.6067 26.3672L59.9113 26.3672L59.9113 34L59.1106 34L59.1106 25.6484L66.4074 25.6484ZM69.8626 25.6484L70.6633 25.6484L70.6633 32.7695L76.6165 25.6484L77.3196 25.6484L77.3196 34L76.5188 34L76.5188 26.8789L70.5696 34L69.8626 34L69.8626 25.6484ZM92.0089 25.6484L92.0089 34L80.7746 34L80.7746 25.6484L81.5753 25.6484L81.5753 33.2969L86.0089 33.2969L86.0089 25.6484L86.8097 25.6484L86.8097 33.2969L91.2082 33.2969L91.2082 25.6484L92.0089 25.6484ZM95.4626 25.6484L96.2634 25.6484L96.2634 32.7695L102.216 25.6484L102.92 25.6484L102.92 34L102.119 34L102.119 26.8789L96.1696 34L95.4626 34L95.4626 25.6484ZM111.961 26.3672L108.695 26.3672L108.695 34L107.894 34L107.894 26.3672L104.632 26.3672L104.632 25.6484L111.961 25.6484L111.961 26.3672ZM120.412 30.0156L113.224 30.0156C113.248 30.6667 113.413 31.2461 113.72 31.7539C114.03 32.2591 114.449 32.651 114.978 32.9297C115.507 33.2057 116.102 33.3438 116.763 33.3438C117.307 33.3438 117.811 33.2461 118.275 33.0508C118.738 32.8529 119.125 32.5612 119.435 32.1758L119.896 32.7031C119.534 33.1406 119.078 33.4766 118.529 33.7109C117.979 33.9453 117.386 34.0625 116.748 34.0625C115.914 34.0625 115.172 33.8815 114.521 33.5195C113.87 33.1576 113.361 32.6562 112.994 32.0156C112.626 31.375 112.443 30.6445 112.443 29.8242C112.443 29.0143 112.616 28.2865 112.962 27.6406C113.309 26.9948 113.785 26.4909 114.392 26.1289C115.001 25.7669 115.685 25.5859 116.443 25.5859C117.201 25.5859 117.88 25.7643 118.482 26.1211C119.083 26.4779 119.557 26.9766 119.904 27.6172C120.253 28.2552 120.427 28.9805 120.427 29.793L120.412 30.0156ZM116.443 26.2891C115.854 26.2891 115.326 26.4193 114.857 26.6797C114.388 26.9401 114.012 27.3086 113.728 27.7852C113.447 28.2591 113.285 28.7943 113.244 29.3906L119.642 29.3906C119.611 28.7943 119.451 28.2617 119.162 27.793C118.873 27.3242 118.494 26.957 118.025 26.6914C117.556 26.4232 117.029 26.2891 116.443 26.2891ZM134.361 23.5352L128.248 23.5352L128.248 34L127.432 34L127.432 22.8008L134.361 22.8008L134.361 23.5352ZM140.839 25.6484L136.554 35.1367C136.234 35.8711 135.863 36.3932 135.441 36.7031C135.019 37.013 134.52 37.168 133.945 37.168C133.562 37.168 133.203 37.1042 132.867 36.9766C132.531 36.849 132.244 36.6615 132.007 36.4141L132.41 35.8086C132.837 36.2461 133.354 36.4648 133.96 36.4648C134.367 36.4648 134.713 36.3529 135 36.1289C135.289 35.9049 135.556 35.5208 135.8 34.9766L136.25 33.9688L132.488 25.6484L133.335 25.6484L136.679 33.1211L140.027 25.6484L140.839 25.6484ZM150.326 33.2969L150.326 36.0781L149.576 36.0781L149.576 34L141.674 34L141.674 36.0781L140.904 36.0781L140.904 33.2969L141.4 33.2969C141.965 33.263 142.352 32.8229 142.56 31.9766C142.769 31.1276 142.916 29.9349 143.002 28.3984L143.111 25.6484L148.982 25.6484L148.982 33.2969L150.326 33.2969ZM143.736 28.4492C143.682 29.7174 143.575 30.7734 143.416 31.6172C143.257 32.4583 142.969 33.0182 142.553 33.2969L148.185 33.2969L148.185 26.3672L143.834 26.3672L143.736 28.4492ZM161.784 25.6484L161.784 34L161.046 34L161.046 26.9297L157.417 32.9297L157.046 32.9297L153.433 26.9453L153.433 34L152.695 34L152.695 25.6484L153.48 25.6484L157.257 31.9688L161.046 25.6484L161.784 25.6484ZM172.364 30.0156L165.176 30.0156C165.2 30.6667 165.365 31.2461 165.672 31.7539C165.982 32.2591 166.401 32.651 166.93 32.9297C167.459 33.2057 168.054 33.3438 168.715 33.3438C169.259 33.3438 169.763 33.2461 170.227 33.0508C170.69 32.8529 171.077 32.5612 171.387 32.1758L171.848 32.7031C171.486 33.1406 171.03 33.4766 170.481 33.7109C169.931 33.9453 169.338 34.0625 168.7 34.0625C167.866 34.0625 167.124 33.8815 166.473 33.5195C165.822 33.1576 165.313 32.6562 164.946 32.0156C164.578 31.375 164.395 30.6445 164.395 29.8242C164.395 29.0143 164.568 28.2865 164.914 27.6406C165.261 26.9948 165.737 26.4909 166.344 26.1289C166.953 25.7669 167.637 25.5859 168.395 25.5859C169.153 25.5859 169.832 25.7643 170.434 26.1211C171.035 26.4779 171.509 26.9766 171.856 27.6172C172.205 28.2552 172.379 28.9805 172.379 29.793L172.364 30.0156ZM168.395 26.2891C167.806 26.2891 167.278 26.4193 166.809 26.6797C166.34 26.9401 165.964 27.3086 165.68 27.7852C165.399 28.2591 165.237 28.7943 165.196 29.3906L171.594 29.3906C171.563 28.7943 171.403 28.2617 171.114 27.793C170.825 27.3242 170.446 26.957 169.977 26.6914C169.508 26.4232 168.981 26.2891 168.395 26.2891ZM174.983 25.6484L175.783 25.6484L175.783 29.457L181.447 29.457L181.447 25.6484L182.248 25.6484L182.248 34L181.447 34L181.447 30.1602L175.783 30.1602L175.783 34L174.983 34L174.983 25.6484ZM192.828 30.0156L185.64 30.0156C185.664 30.6667 185.829 31.2461 186.136 31.7539C186.446 32.2591 186.865 32.651 187.394 32.9297C187.923 33.2057 188.518 33.3438 189.179 33.3438C189.723 33.3438 190.227 33.2461 190.691 33.0508C191.154 32.8529 191.541 32.5612 191.851 32.1758L192.312 32.7031C191.95 33.1406 191.494 33.4766 190.945 33.7109C190.395 33.9453 189.802 34.0625 189.164 34.0625C188.33 34.0625 187.588 33.8815 186.937 33.5195C186.286 33.1576 185.777 32.6562 185.41 32.0156C185.042 31.375 184.859 30.6445 184.859 29.8242C184.859 29.0143 185.032 28.2865 185.378 27.6406C185.725 26.9948 186.201 26.4909 186.808 26.1289C187.417 25.7669 188.101 25.5859 188.859 25.5859C189.617 25.5859 190.296 25.7643 190.898 26.1211C191.499 26.4779 191.973 26.9766 192.32 27.6172C192.669 28.2552 192.843 28.9805 192.843 29.793L192.828 30.0156ZM188.859 26.2891C188.27 26.2891 187.742 26.4193 187.273 26.6797C186.804 26.9401 186.428 27.3086 186.144 27.7852C185.863 28.2591 185.701 28.7943 185.66 29.3906L192.058 29.3906C192.027 28.7943 191.867 28.2617 191.578 27.793C191.289 27.3242 190.91 26.957 190.441 26.6914C189.972 26.4232 189.445 26.2891 188.859 26.2891ZM203.094 33.2969L203.094 36.0781L202.344 36.0781L202.344 34L194.442 34L194.442 36.0781L193.672 36.0781L193.672 33.2969L194.168 33.2969C194.733 33.263 195.12 32.8229 195.328 31.9766C195.537 31.1276 195.684 29.9349 195.77 28.3984L195.879 25.6484L201.75 25.6484L201.75 33.2969L203.094 33.2969ZM196.504 28.4492C196.45 29.7174 196.343 30.7734 196.184 31.6172C196.025 32.4583 195.737 33.0182 195.321 33.2969L200.953 33.2969L200.953 26.3672L196.602 26.3672L196.504 28.4492ZM212.552 30.1289L210.584 30.1289L210.584 34L209.783 34L209.783 30.1289L207.834 30.1289L205.049 34L204.072 34L207.193 29.7109L204.33 25.6484L205.209 25.6484L207.834 29.4414L209.783 29.4414L209.783 25.6484L210.584 25.6484L210.584 29.4414L212.552 29.4414L215.177 25.6484L216.056 25.6484L213.193 29.7109L216.295 34L215.338 34L212.552 30.1289ZM225.196 30.0156L218.008 30.0156C218.032 30.6667 218.197 31.2461 218.504 31.7539C218.814 32.2591 219.233 32.651 219.762 32.9297C220.291 33.2057 220.886 33.3438 221.547 33.3438C222.091 33.3438 222.595 33.2461 223.059 33.0508C223.522 32.8529 223.909 32.5612 224.219 32.1758L224.68 32.7031C224.318 33.1406 223.862 33.4766 223.313 33.7109C222.763 33.9453 222.17 34.0625 221.532 34.0625C220.698 34.0625 219.956 33.8815 219.305 33.5195C218.654 33.1576 218.145 32.6562 217.778 32.0156C217.41 31.375 217.227 30.6445 217.227 29.8242C217.227 29.0143 217.4 28.2865 217.746 27.6406C218.093 26.9948 218.569 26.4909 219.176 26.1289C219.785 25.7669 220.469 25.5859 221.227 25.5859C221.985 25.5859 222.664 25.7643 223.266 26.1211C223.867 26.4779 224.341 26.9766 224.688 27.6172C225.037 28.2552 225.211 28.9805 225.211 29.793L225.196 30.0156ZM221.227 26.2891C220.638 26.2891 220.11 26.4193 219.641 26.6797C219.172 26.9401 218.796 27.3086 218.512 27.7852C218.231 28.2591 218.069 28.7943 218.028 29.3906L224.426 29.3906C224.395 28.7943 224.235 28.2617 223.946 27.793C223.657 27.3242 223.278 26.957 222.809 26.6914C222.34 26.4232 221.813 26.2891 221.227 26.2891ZM232.022 25.5859C232.8 25.5859 233.505 25.7669 234.135 26.1289C234.765 26.4909 235.259 26.9922 235.615 27.6328C235.972 28.2734 236.151 29.0039 236.151 29.8242C236.151 30.6445 235.972 31.3776 235.615 32.0234C235.259 32.6693 234.765 33.1706 234.135 33.5273C233.505 33.8841 232.8 34.0625 232.022 34.0625C231.287 34.0625 230.621 33.8893 230.022 33.543C229.425 33.1966 228.962 32.7148 228.631 32.0977L228.631 37.1055L227.83 37.1055L227.83 25.6484L228.6 25.6484L228.6 27.6172C228.93 26.9766 229.397 26.4779 229.998 26.1211C230.602 25.7643 231.277 25.5859 232.022 25.5859ZM231.975 33.3438C232.615 33.3438 233.191 33.1953 233.701 32.8984C234.214 32.599 234.617 32.1823 234.908 31.6484C235.203 31.1146 235.35 30.5065 235.35 29.8242C235.35 29.1419 235.203 28.5339 234.908 28C234.617 27.4661 234.214 27.0508 233.701 26.7539C233.191 26.4544 232.615 26.3047 231.975 26.3047C231.334 26.3047 230.76 26.4544 230.252 26.7539C229.747 27.0508 229.347 27.4661 229.053 28C228.761 28.5339 228.615 29.1419 228.615 29.8242C228.615 30.5065 228.761 31.1146 229.053 31.6484C229.347 32.1823 229.747 32.599 230.252 32.8984C230.76 33.1953 231.334 33.3438 231.975 33.3438ZM245.319 25.6484L241.034 35.1367C240.714 35.8711 240.343 36.3932 239.921 36.7031C239.499 37.013 239 37.168 238.425 37.168C238.042 37.168 237.683 37.1042 237.347 36.9766C237.011 36.849 236.724 36.6615 236.487 36.4141L236.89 35.8086C237.317 36.2461 237.834 36.4648 238.44 36.4648C238.847 36.4648 239.193 36.3529 239.48 36.1289C239.769 35.9049 240.035 35.5208 240.28 34.9766L240.73 33.9688L236.968 25.6484L237.815 25.6484L241.159 33.1211L244.507 25.6484L245.319 25.6484Z" fill="rgb(153,153,153)" fill-rule="nonzero" />
	<g id="фрейм 41" clip-path="url(#clipPath_1)" customFrame="url(#clipPath_1)">
		<rect id="фрейм 41" width="43.000000" height="35.000000" x="11.000000" y="11.000000" />
		<line id="Линия 6" x1="2.18333316e-05" x2="24.000021" y1="0" y2="0" stroke="rgb(0,0,0)" stroke-width="1" transform="matrix(0,1,-1,0,34.001,17)" />
	</g>
	<g id="Button" customFrame="url(#clipPath_2)">
		<rect id="Button" width="48.000000" height="52.000000" x="632.000000" y="55.000000" rx="10.000000" />
		<circle id="↳ Background" cx="656" cy="81" r="17" fill="rgb(204,204,204)" />
		<g id="↳ Foreground" customFrame="url(#clipPath_3)">
			<rect id="↳ Foreground" width="24.000000" height="24.000000" x="644.000000" y="69.000000" />
			<path id="↳ Icon Color" d="M657 88C657 88.5523 656.552 89 656 89C655.448 89 655 88.5523 655 88L655 76.4142L650.707 80.7071C650.317 81.0976 649.683 81.0976 649.293 80.7071C648.902 80.3166 648.902 79.6834 649.293 79.2929L655.293 73.2929C655.683 72.9024 656.317 72.9024 656.707 73.2929L662.707 79.2929C663.098 79.6834 663.098 80.3166 662.707 80.7071C662.317 81.0976 661.683 81.0976 661.293 80.7071L657 76.4142L657 88Z" fill="rgb(255,255,255)" fill-rule="evenodd" />
		</g>
	</g>
	<g id="x / Write Bar / Right / Set 6: Default with Camera" customFrame="url(#clipPath_4)">
		<rect id="x / Write Bar / Right / Set 6: Default with Camera" width="85.692078" height="52.000000" x="560.569214" y="55.000000" />
		<g id="Button" customFrame="url(#clipPath_5)">
			<rect id="Button" width="44.000000" height="52.000000" x="564.569214" y="55.000000" rx="10.000000" />
			<g id="camera_outline_28" clip-path="url(#clipPath_6)" customFrame="url(#clipPath_6)">
				<rect id="camera_outline_28" width="28.000000" height="28.000000" x="572.569214" y="67.000000" />
				<path id="source" d="M597.569 83C597.569 85.8003 597.569 87.2004 597.024 88.27C596.545 89.2108 595.78 89.9757 594.839 90.455C593.77 91 592.369 91 589.569 91L583.569 91C580.769 91 579.369 91 578.299 90.455C577.358 89.9757 576.594 89.2108 576.114 88.27C575.569 87.2004 575.569 85.8003 575.569 83L575.569 78.2119C575.569 77.5505 575.569 77.2198 575.614 76.9432C575.854 75.4531 577.022 74.2847 578.512 74.0446C578.789 74 579.12 74 579.781 74C579.993 74 580.099 74 580.198 73.99C580.724 73.9373 581.208 73.6784 581.544 73.2699C581.607 73.1926 581.666 73.1045 581.784 72.9282L581.869 72.8C582.17 72.3482 582.321 72.1223 582.498 71.936C582.943 71.4665 583.528 71.1535 584.165 71.0436C584.418 71 584.69 71 585.233 71L587.906 71C588.449 71 588.72 71 588.973 71.0436C589.611 71.1535 590.196 71.4665 590.641 71.936C590.817 72.1223 590.968 72.3482 591.269 72.8L591.355 72.9282C591.472 73.1045 591.531 73.1926 591.594 73.2699C591.93 73.6784 592.414 73.9373 592.94 73.99C593.04 74 593.145 74 593.357 74C594.019 74 594.349 74 594.626 74.0446C596.116 74.2847 597.285 75.4531 597.525 76.9432C597.569 77.2198 597.569 77.5505 597.569 78.2119L597.569 83Z" opacity="0" fill-rule="evenodd" stroke="rgb(0,0,0)" stroke-width="2" />
				<path id="↳ Icon Color" d="M588.266 70C588.787 70 589.26 70.0648 589.697 70.2018C590.154 70.3451 590.567 70.5662 590.94 70.8672C591.296 71.1549 591.613 71.5125 591.901 71.9453L592.167 72.3425L592.301 72.5315C592.398 72.6613 592.463 72.729 592.536 72.7898C592.623 72.8613 592.709 72.9077 592.817 72.94C592.945 72.9784 593.075 72.9955 593.394 72.9992L593.612 73.0009C594.805 73.0524 595.484 73.2163 596.199 73.599C596.96 74.006 597.563 74.6091 597.97 75.3701C598.415 76.2015 598.569 77.001 598.569 78.615L598.569 84.5903C598.569 86.7733 598.367 87.823 597.783 88.9137C597.254 89.9028 596.472 90.685 595.483 91.214C594.392 91.7973 593.343 92 591.159 92L581.979 92C579.796 92 578.746 91.7973 577.656 91.214C576.666 90.685 575.884 89.9028 575.355 88.9137C574.803 87.8804 574.592 86.8839 574.571 84.9257L574.571 78.3217C574.59 76.9009 574.751 76.1495 575.168 75.3701C575.575 74.6091 576.178 74.006 576.939 73.599C577.63 73.2295 578.286 73.0652 579.391 73.016L579.479 73.0041L579.569 73L579.744 72.9992C580.063 72.9955 580.194 72.9784 580.321 72.94C580.429 72.9077 580.516 72.8613 580.602 72.7898C580.705 72.7047 580.791 72.606 580.971 72.3425L581.237 71.9453C581.526 71.5125 581.842 71.1549 582.198 70.8672C582.571 70.5662 582.984 70.3451 583.442 70.2018C583.879 70.0648 584.352 70 584.872 70L588.266 70ZM588.266 72L584.872 72C584.545 72 584.272 72.0374 584.04 72.1103C583.822 72.1785 583.632 72.2801 583.455 72.4235C583.265 72.5765 583.082 72.7829 582.901 73.0547L582.598 73.5071C582.326 73.8987 582.132 74.1201 581.876 74.3312C581.584 74.5728 581.26 74.7462 580.897 74.8554C580.558 74.9573 580.247 74.9951 579.71 74.9995L579.657 75.0058L579.387 75.0183C578.634 75.0567 578.277 75.1514 577.883 75.3627C577.47 75.5832 577.152 75.9009 576.932 76.3133C576.663 76.8153 576.569 77.3029 576.569 78.615L576.569 84.5903C576.569 86.4714 576.712 87.2092 577.119 87.9705C577.461 88.6111 577.958 89.1078 578.599 89.4504C579.28 89.8147 579.942 89.9671 581.422 89.9951L581.979 90L591.159 90L591.717 89.9951C593.196 89.9671 593.859 89.8147 594.54 89.4504C595.18 89.1078 595.677 88.6111 596.02 87.9705C596.384 87.2893 596.536 86.627 596.564 85.1477L596.569 84.5903L596.569 78.615L596.565 78.16C596.543 77.1808 596.442 76.7526 596.207 76.3133C595.986 75.9009 595.668 75.5832 595.256 75.3627C594.825 75.1322 594.436 75.0383 593.569 75L593.327 74.9983C592.851 74.9899 592.559 74.9507 592.241 74.8554C591.878 74.7462 591.554 74.5728 591.262 74.3312C591.007 74.1201 590.812 73.8987 590.541 73.5071L590.237 73.0547C590.056 72.7829 589.873 72.5765 589.684 72.4235C589.506 72.2801 589.316 72.1785 589.099 72.1103C588.866 72.0374 588.593 72 588.266 72ZM586.569 76.5C589.469 76.5 591.819 78.8503 591.819 81.75C591.819 84.6497 589.469 87 586.569 87C583.669 87 581.319 84.6497 581.319 81.75C581.319 78.8503 583.669 76.5 586.569 76.5ZM586.569 78.5C584.774 78.5 583.319 79.9548 583.319 81.75C583.319 83.5452 584.774 85 586.569 85C588.364 85 589.819 83.5452 589.819 81.75C589.819 79.9548 588.364 78.5 586.569 78.5Z" fill="rgb(204,204,204)" fill-rule="evenodd" />
			</g>
		</g>
		<g id="Button" customFrame="url(#clipPath_7)">
			<rect id="Button" width="44.000000" height="52.000000" x="608.569214" y="55.000000" rx="10.000000" />
			<g id="voice_outline_28" clip-path="url(#clipPath_8)" customFrame="url(#clipPath_8)">
				<rect id="voice_outline_28" width="28.000000" height="28.000000" x="616.569214" y="67.000000" />
				<g id="source" opacity="0">
					<path id="Rectangle 1423" d="M635.569 80C635.569 82.7614 633.331 85 630.569 85C627.808 85 625.569 82.7614 625.569 80L625.569 75C625.569 72.2386 627.808 70 630.569 70C633.331 70 635.569 72.2386 635.569 75L635.569 80Z" fill-rule="evenodd" stroke="rgb(230,70,70)" stroke-linecap="round" stroke-linejoin="round" stroke-width="2" />
					<path id="Ellipse 96" d="M638.567 84.1278C637.512 86.1719 635.779 87.6413 633.785 88.4035C631.637 89.2277 629.366 89.17 627.371 88.4102C625.22 87.5947 623.565 86.0392 622.58 84.1446" fill-rule="nonzero" stroke="rgb(230,70,70)" stroke-linecap="round" stroke-linejoin="round" stroke-width="2" />
					<path id="Vector 106" d="M630.569 89L630.569 93" stroke="rgb(230,70,70)" stroke-width="2" />
				</g>
				<path id="↳ Icon Color" d="M624.56 75C624.56 71.6863 627.249 69 630.565 69C633.881 69 636.569 71.6863 636.569 75L636.569 80C636.569 83.3137 633.881 86 630.565 86C627.249 86 624.56 83.3137 624.56 80L624.56 75ZM630.565 71C628.354 71 626.562 72.7909 626.562 75L626.562 80C626.562 82.2091 628.354 84 630.565 84C632.776 84 634.568 82.2091 634.568 80L634.568 75C634.568 72.7909 632.776 71 630.565 71ZM639.027 83.2392C639.518 83.4925 639.711 84.0957 639.458 84.5865C638.616 86.2158 637.342 87.5826 635.776 88.5373C634.492 89.3195 633.053 89.8005 631.566 89.9499L631.566 93C631.566 93.5523 631.118 94 630.565 94C630.012 94 629.564 93.5523 629.564 93L629.564 89.9499C628.084 89.8012 626.651 89.3241 625.372 88.5482C623.803 87.5967 622.527 86.2327 621.682 84.6051C621.427 84.1149 621.619 83.5113 622.109 83.2569C622.6 83.0026 623.204 83.1938 623.458 83.6841C624.134 84.9861 625.156 86.0774 626.41 86.8386C627.665 87.5997 629.105 88.0015 630.573 88C632.041 87.9985 633.48 87.5937 634.734 86.8299C635.987 86.0661 637.006 84.9727 637.679 83.6692C637.932 83.1784 638.536 82.9859 639.027 83.2392Z" fill="rgb(204,204,204)" fill-rule="evenodd" />
			</g>
		</g>
	</g>
</svg>
