<svg viewBox="0 0 48 48" xmlns="http://www.w3.org/2000/svg" xmlns:xlink="http://www.w3.org/1999/xlink" width="99.000000" height="99.000000" fill="none">
	<rect id="sections" width="99.000000" height="99.000000" x="0.000000" y="0.000000" />
	<circle id="Эллипс 16" cx="24" cy="24" r="23" stroke="rgb(0,84,117)" stroke-width="2" />
	<path id="Слияние" d="M17.7669 17.2788C17.1669 16.7151 17.4669 15.5879 18.3669 15.1651C19.2669 14.6015 20.9169 15.306 20.9169 15.306C20.9169 15.306 21.5169 14.3197 22.8669 14.3197C24.6669 14.3197 25.2669 15.1651 25.2669 15.1651C25.2669 15.1651 26.0169 13.3333 28.1169 13.3333C30.3669 13.3333 30.8169 14.8833 30.8169 14.8833C30.8169 14.8833 31.2669 14.0379 32.7669 14.1788C34.4169 14.3197 34.1169 15.7288 34.1169 15.7288C34.1169 15.7288 35.7669 15.5879 35.7669 16.856C35.7669 17.8424 34.2669 17.8424 34.2669 17.8424C34.2669 17.8424 34.3897 18.0443 34.3714 18.3176C34.6229 18.8338 34.7642 19.4137 34.7642 20.0266C34.7642 20.6333 34.6255 21.2066 34.3895 21.696L34.3095 21.8426L34.1762 21.936C34.1362 21.9626 31.0428 24.176 28.2375 26.6773C28.8322 26.9453 29.4695 27.1373 30.1762 27.2426L30.1375 27.2413C30.4202 27.2613 30.7055 27.2706 30.9935 27.2706C32.3162 27.2706 33.5895 27.06 34.6962 26.696L32.0295 29.0026L33.2948 30.6906C31.8455 30.5573 30.4468 30.2453 29.1935 29.7946C28.5255 29.4866 27.9055 29.0906 27.3642 28.6293C27.8615 29.1213 28.2815 29.6933 28.5842 30.248C29.0388 31.648 29.3082 33.1306 29.3628 34.696L27.5895 33.3626L25.3428 36.0866C25.7255 35.1253 25.9362 34.076 25.9362 32.9786C25.9362 32.644 25.9175 32.3146 25.8748 31.9826C25.7175 31.22 25.4402 30.5013 25.0828 29.8826C22.4962 32.6826 20.0695 35.7493 19.7428 36.16C19.2668 36.8866 18.4455 37.3666 17.5108 37.3666C17.4588 37.3666 17.4068 37.3653 17.3722 37.3626C17.3015 37.3666 17.2295 37.3693 17.1562 37.3693C16.0788 37.3693 15.1055 36.916 14.4295 36.2093C13.7388 35.224 13.3335 34.024 13.3335 32.7306C13.3335 32.236 13.3935 31.7546 13.4962 31.336L13.4962 31.0293L14.0215 30.6986C16.8855 28.836 19.5975 26.76 22.0455 24.576C23.4933 23.0661 24.8767 21.4939 26.2277 19.8114C24.603 19.3143 24.3669 17.9833 24.3669 17.9833C24.3669 17.9833 22.7169 18.8288 21.5169 17.8424C19.7169 16.4333 18.5169 16.0106 17.7669 17.2788ZM27.7753 19.9894C27.0265 20.9447 26.1179 22.0616 25.1655 23.1373C25.2535 23.1266 25.3428 23.1213 25.4335 23.1213C25.9615 23.1213 26.4455 23.3146 26.8188 23.6333C27.3068 24.064 27.6362 24.6693 27.7095 25.364C30.1095 23.244 32.5895 21.364 33.2375 20.9546C33.3455 20.6693 33.4055 20.36 33.4055 20.0373C33.4055 19.802 33.3739 19.5741 33.3147 19.3575C33.283 19.3693 33.2504 19.3809 33.2169 19.3924C30.9669 20.2379 30.3669 18.8288 30.3669 18.8288C30.3669 18.8288 29.6724 19.916 27.7753 19.9894ZM17.7895 30.3973C18.6575 30.692 19.3828 31.296 19.8428 32.096L19.8202 32.0786C20.0602 32.484 20.2242 32.9373 20.2962 33.4426C21.2962 32.1493 22.7762 30.4026 24.2962 28.768C24.2975 28.7266 24.2988 28.6853 24.2988 28.6426C24.2988 28.016 24.0548 27.448 23.6588 27.0306C23.2335 26.6533 22.6815 26.4146 22.1508 26.32C20.5215 27.7186 18.8188 29.032 16.8335 30.3893C16.9135 30.38 16.9935 30.3746 17.0762 30.3746C17.1588 30.3746 17.2388 30.38 17.3002 30.3893C17.3775 30.3813 17.4562 30.376 17.5362 30.376C17.6162 30.376 17.6948 30.3813 17.7895 30.3973ZM17.5348 36.04C18.0308 36.04 18.4628 35.7706 18.6962 35.3626L18.6882 35.3813C18.8682 34.9813 18.9682 34.536 18.9682 34.068C18.9682 33.7346 18.9175 33.4133 18.8295 33.1346L16.5628 35.0013L16.0908 34.4146C15.6335 33.7653 15.3642 32.972 15.3642 32.116C15.3642 32.0093 15.3682 31.9053 15.3775 31.804C15.4242 31.568 15.5175 31.3493 15.6428 31.1626L14.7015 31.772C14.6348 32.0853 14.5988 32.4106 14.5988 32.7453C14.5988 33.7 14.8895 34.588 15.3762 35.308C15.8255 35.76 16.4468 36.0386 17.1335 36.0386C17.2148 36.0386 17.2948 36.036 17.3562 36.028C17.4148 36.036 17.4735 36.04 17.5348 36.04ZM17.3122 31.6666C17.1815 31.6666 17.0602 31.708 16.9628 31.776L16.9615 31.7773C16.8628 31.8293 16.7868 31.9186 16.7508 32.0213C16.7428 32.088 16.7388 32.156 16.7388 32.2253C16.7388 32.4986 16.8015 32.756 16.9095 32.976L18.0708 32.0173C17.9015 31.8586 17.6948 31.7386 17.4562 31.6693L17.3655 31.6693C17.3482 31.668 17.3308 31.6666 17.3122 31.6666Z" fill="rgb(0,84,117)" fill-rule="evenodd" />
</svg>
