<svg viewBox="0 0 36 36" xmlns="http://www.w3.org/2000/svg" xmlns:xlink="http://www.w3.org/1999/xlink" width="99.000000" height="99.000000" fill="none">
	<rect id="type=project" width="36.000000" height="36.000000" x="0.000000" y="0.000000" />
	<circle id="Эллипс 16" cx="18" cy="18" r="17" stroke="rgb(0,84,117)" stroke-width="2" />
	<path id="Слияние" d="M22 10L15 10L15 16L15.7 16L15.9 16.7L16 16.8L16 11L21 11L21 15L25 15L25 24L19 24L19.3 24.5L18.8 25L26 25L26 14L22 10ZM22 14L22 11L25 14L22 14ZM19 22L17.9 22.4C17.8 22.7 17.7 23 17.5 23.2L18 24.3L17.3 25L16.3 24.5C16 24.7 15.7 24.8 15.4 24.9L15 26L14 26L13.7 24.9C13.4 24.8 13.1 24.7 12.8 24.5L11.7 25L11 24.3L11.5 23.3C11.3 23 11.2 22.7 11.1 22.4L10 22L10 21L11.1 20.7C11.2 20.4 11.3 20.1 11.5 19.8L11 18.7L11.7 18L12.7 18.5C13 18.3 13.3 18.2 13.6 18.1L14 17L15 17L15.4 18.1C15.7 18.2 16 18.3 16.3 18.5L17.3 18L18 18.7L17.5 19.7C17.7 20 17.8 20.3 17.9 20.6L19 21L19 22ZM12.5 21.5C12.5 22.6 13.4 23.5 14.5 23.5C15.6 23.5 16.5 22.6 16.5 21.5C16.5 20.4 15.6 19.5 14.5 19.5C13.4 19.5 12.5 20.4 12.5 21.5ZM15.5 21.5C15.5 22.052 15.052 22.5 14.5 22.5C13.948 22.5 13.5 22.052 13.5 21.5C13.5 20.948 13.948 20.5 14.5 20.5C15.052 20.5 15.5 20.948 15.5 21.5Z" fill="rgb(0,84,117)" fill-rule="evenodd" />
</svg>
