<svg viewBox="0 0 36 36" xmlns="http://www.w3.org/2000/svg" xmlns:xlink="http://www.w3.org/1999/xlink" width="99.000000" height="99.000000" fill="none">
	<rect id="Свойство 1=4" width="36.000000" height="36.000000" x="0.000000" y="0.000000" />
	<circle id="Эллипс 16" cx="18" cy="18" r="17" stroke="rgb(0,84,117)" stroke-width="2" />
	<path id="Слияние" d="M23 7L23 15L28.3333 15L28.3333 24.3333L7 24.3333L7 15L12.3333 15L12.3333 7L23 7ZM13.6667 8.33333L13.6667 15L21.6667 15L21.6667 8.33333L19 8.33333L19 9.66667L16.3333 9.66667L16.3333 8.33333L13.6667 8.33333ZM8.33333 16.3333L8.33333 23L16.3333 23L16.3333 16.3333L13.6667 16.3333L13.6667 17.6667L11 17.6667L11 16.3333L8.33333 16.3333ZM19 16.3333L19 23L27 23L27 16.3333L24.3333 16.3333L24.3333 17.6667L21.6667 17.6667L21.6667 16.3333L19 16.3333ZM11 28.6667L7 28.6667L7 26L28.3333 26L28.3333 28.6667L24.3333 28.6667L24.3333 27.3333L11 27.3333L11 28.6667Z" fill="rgb(0,84,117)" fill-rule="evenodd" />
</svg>
