<svg viewBox="0 0 48 48" xmlns="http://www.w3.org/2000/svg" xmlns:xlink="http://www.w3.org/1999/xlink" width="99.000000" height="99.000000" fill="none">
	<rect id="sections" width="48.000000" height="48.000000" x="0.000000" y="0.000000" />
	<circle id="Эллипс 16" cx="24" cy="24" r="23" stroke="rgb(0,84,117)" stroke-width="2" />
	<path id="Слияние" d="M29.3335 13.3334L20.0002 13.3334L20.0002 21.3334L20.9335 21.3334L21.2002 22.2667L21.3335 22.4L21.3335 14.6667L28.0002 14.6667L28.0002 20L33.3335 20L33.3335 32L25.3335 32L25.7335 32.6667L25.0668 33.3334L34.6668 33.3334L34.6668 18.6667L29.3335 13.3334ZM29.3335 18.6667L29.3335 14.6667L33.3335 18.6667L29.3335 18.6667ZM25.3335 29.3334L23.8668 29.8667C23.7335 30.2667 23.6002 30.6667 23.3335 30.9334L24.0002 32.4L23.0668 33.3334L21.7335 32.6667C21.3335 32.9334 20.9335 33.0667 20.5335 33.2L20.0002 34.6667L18.6668 34.6667L18.2668 33.2C17.8668 33.0667 17.4668 32.9334 17.0668 32.6667L15.6002 33.3334L14.6668 32.4L15.3335 31.0667C15.0668 30.6667 14.9335 30.2667 14.8002 29.8667L13.3335 29.3334L13.3335 28L14.8002 27.6C14.9335 27.2 15.0668 26.8 15.3335 26.4L14.6668 24.9334L15.6002 24L16.9335 24.6667C17.3335 24.4 17.7335 24.2667 18.1335 24.1334L18.6668 22.6667L20.0002 22.6667L20.5335 24.1334C20.9335 24.2667 21.3335 24.4 21.7335 24.6667L23.0668 24L24.0002 24.9334L23.3335 26.2667C23.6002 26.6667 23.7335 27.0667 23.8668 27.4667L25.3335 28L25.3335 29.3334ZM16.6668 28.6667C16.6668 30.1334 17.8668 31.3334 19.3335 31.3334C20.8002 31.3334 22.0002 30.1334 22.0002 28.6667C22.0002 27.2 20.8002 26 19.3335 26C17.8668 26 16.6668 27.2 16.6668 28.6667ZM20.6668 28.6667C20.6668 29.4027 20.0695 30 19.3335 30C18.5975 30 18.0002 29.4027 18.0002 28.6667C18.0002 27.9307 18.5975 27.3334 19.3335 27.3334C20.0695 27.3334 20.6668 27.9307 20.6668 28.6667Z" fill="rgb(0,84,117)" fill-rule="evenodd" />
	<path id="Слияние" d="M29.3335 13.3334L20.0002 13.3334L20.0002 21.3334L20.9335 21.3334L21.2002 22.2667L21.3335 22.4L21.3335 14.6667L28.0002 14.6667L28.0002 20L33.3335 20L33.3335 32L25.3335 32L25.7335 32.6667L25.0668 33.3334L34.6668 33.3334L34.6668 18.6667L29.3335 13.3334ZM29.3335 18.6667L29.3335 14.6667L33.3335 18.6667L29.3335 18.6667ZM25.3335 29.3334L23.8668 29.8667C23.7335 30.2667 23.6002 30.6667 23.3335 30.9334L24.0002 32.4L23.0668 33.3334L21.7335 32.6667C21.3335 32.9334 20.9335 33.0667 20.5335 33.2L20.0002 34.6667L18.6668 34.6667L18.2668 33.2C17.8668 33.0667 17.4668 32.9334 17.0668 32.6667L15.6002 33.3334L14.6668 32.4L15.3335 31.0667C15.0668 30.6667 14.9335 30.2667 14.8002 29.8667L13.3335 29.3334L13.3335 28L14.8002 27.6C14.9335 27.2 15.0668 26.8 15.3335 26.4L14.6668 24.9334L15.6002 24L16.9335 24.6667C17.3335 24.4 17.7335 24.2667 18.1335 24.1334L18.6668 22.6667L20.0002 22.6667L20.5335 24.1334C20.9335 24.2667 21.3335 24.4 21.7335 24.6667L23.0668 24L24.0002 24.9334L23.3335 26.2667C23.6002 26.6667 23.7335 27.0667 23.8668 27.4667L25.3335 28L25.3335 29.3334ZM16.6668 28.6667C16.6668 30.1334 17.8668 31.3334 19.3335 31.3334C20.8002 31.3334 22.0002 30.1334 22.0002 28.6667C22.0002 27.2 20.8002 26 19.3335 26C17.8668 26 16.6668 27.2 16.6668 28.6667ZM20.6668 28.6667C20.6668 29.4027 20.0695 30 19.3335 30C18.5975 30 18.0002 29.4027 18.0002 28.6667C18.0002 27.9307 18.5975 27.3334 19.3335 27.3334C20.0695 27.3334 20.6668 27.9307 20.6668 28.6667Z" fill="rgb(0,84,117)" fill-rule="evenodd" />
</svg>
